<svg width="1274" height="250" viewBox="0 0 1274 250" fill="none" xmlns="http://www.w3.org/2000/svg">
<path d="M0 -65.6422L3.19298 -65.2184L6.38596 -64.986L9.57895 -64.9465L12.7719 -65.1002L15.9649 -65.4461L19.1579 -65.982L22.3509 -66.7048L25.5439 -67.6098L28.7368 -68.6915L31.9298 -69.9433L35.1228 -71.3575L38.3158 -72.9252L41.5088 -74.637L44.7018 -76.4821L47.8947 -78.4492L51.0877 -80.5263L54.2807 -82.7004L57.4737 -84.9582L60.6667 -87.2858L63.8596 -89.6688L67.0526 -92.0926L70.2456 -94.5421L76.6316 -99.458L79.8246 -101.894L83.0175 -104.296L86.2105 -106.648L89.4035 -108.936L92.5965 -111.146L95.7895 -113.264L98.9825 -115.277L102.175 -117.174L105.368 -118.941L108.561 -120.569L111.754 -122.047L114.947 -123.366L118.14 -124.518L121.333 -125.496L124.526 -126.294L127.719 -126.907L130.912 -127.33L134.105 -127.563L137.298 -127.602L140.491 -127.449L143.684 -127.103L146.877 -126.567L150.07 -125.844L153.263 -124.939L156.456 -123.857L159.649 -122.605L162.842 -121.191L166.035 -119.624L169.228 -117.912L172.421 -116.067L175.614 -114.1L178.807 -112.023L182 -109.848L185.193 -107.591L188.386 -105.263L191.579 -102.88L194.772 -100.456L197.965 -98.0067L204.351 -93.0908L207.544 -90.6547L210.737 -88.2533L213.93 -85.9013L217.123 -83.6133L220.316 -81.4033L223.509 -79.285L226.702 -77.2715L229.895 -75.3751L233.088 -73.6076L236.281 -71.9798L239.474 -70.5018L242.667 -69.1827L245.86 -68.0306L249.053 -67.0527L252.246 -66.2549L255.439 -65.6422L258.632 -65.2184L261.825 -64.986L265.018 -64.9465L268.211 -65.1002L271.403 -65.4461L274.596 -65.982L277.789 -66.7048L280.982 -67.6098L284.175 -68.6915L287.368 -69.9433L290.561 -71.3575L293.754 -72.9252L296.947 -74.637L300.14 -76.4821L303.333 -78.4492L306.526 -80.5263L309.719 -82.7004L312.912 -84.9582L316.105 -87.2858L319.298 -89.6688L322.491 -92.0926L325.684 -94.5421L332.07 -99.458L335.263 -101.894L338.456 -104.296L341.649 -106.648L344.842 -108.936L348.035 -111.146L351.228 -113.264L354.421 -115.277L357.614 -117.174L360.807 -118.941L364 -120.569L367.193 -122.047L370.386 -123.366L373.579 -124.518L376.772 -125.496L379.965 -126.294L383.158 -126.907L386.351 -127.33L389.544 -127.563L392.737 -127.602L395.93 -127.449L399.123 -127.103L402.316 -126.567L405.509 -125.844L408.702 -124.939L411.895 -123.857L415.088 -122.605L418.281 -121.191L421.474 -119.624L424.667 -117.912L427.86 -116.067L431.053 -114.1L434.246 -112.023L437.439 -109.848L440.632 -107.591L443.825 -105.263L447.018 -102.88L450.211 -100.456L453.403 -98.0067L459.789 -93.0908L462.982 -90.6547L466.175 -88.2533L469.368 -85.9013L472.561 -83.6133L475.754 -81.4033L478.947 -79.285L482.14 -77.2715L485.333 -75.3751L488.526 -73.6076L491.719 -71.9798L494.912 -70.5018L498.105 -69.1827L501.298 -68.0306L504.491 -67.0527L507.684 -66.2549L510.877 -65.6422L514.07 -65.2184L517.263 -64.986L520.456 -64.9465L523.649 -65.1002L526.842 -65.4461L530.035 -65.982L533.228 -66.7048L536.421 -67.6098L539.614 -68.6915L542.807 -69.9433L546 -71.3575L549.193 -72.9252L552.386 -74.637L555.579 -76.4821L558.772 -78.4492L561.965 -80.5263L565.158 -82.7004L568.351 -84.9582L571.544 -87.2858L574.737 -89.6688L577.93 -92.0926L581.123 -94.5421L587.509 -99.458L590.702 -101.894L593.895 -104.296L597.088 -106.648L600.281 -108.936L603.474 -111.146L606.667 -113.264L609.86 -115.277L613.053 -117.174L616.246 -118.941L619.439 -120.569L622.632 -122.047L625.825 -123.366L629.018 -124.518L632.211 -125.496L635.403 -126.294L638.596 -126.907L641.789 -127.33L644.982 -127.563L648.175 -127.602L651.368 -127.449L654.561 -127.103L657.754 -126.567L660.947 -125.844L664.14 -124.939L667.333 -123.857L670.526 -122.605L673.719 -121.191L676.912 -119.624L680.105 -117.912L683.298 -116.067L686.491 -114.1L689.684 -112.023L692.877 -109.848L696.07 -107.591L699.263 -105.263L702.456 -102.88L705.649 -100.456L708.842 -98.0067L715.228 -93.0908L718.421 -90.6547L721.614 -88.2533L724.807 -85.9013L728 -83.6133L731.193 -81.4033L734.386 -79.285L737.579 -77.2715L740.772 -75.3751L743.965 -73.6076L747.158 -71.9798L750.351 -70.5018L753.544 -69.1827L756.737 -68.0306L759.93 -67.0527L763.123 -66.2549L766.316 -65.6422L769.509 -65.2184L772.702 -64.986L775.895 -64.9465L779.088 -65.1002L782.281 -65.4461L785.474 -65.982L788.667 -66.7048L791.86 -67.6098L795.053 -68.6915L798.246 -69.9433L801.439 -71.3575L804.632 -72.9252L807.825 -74.637L811.017 -76.4821L814.211 -78.4492L817.403 -80.5263L820.596 -82.7004L823.789 -84.9582L826.982 -87.2858L830.175 -89.6688L833.368 -92.0926L836.561 -94.5421L842.947 -99.458L846.14 -101.894L849.333 -104.296L852.526 -106.648L855.719 -108.936L858.912 -111.146L862.105 -113.264L865.298 -115.277L868.491 -117.174L871.684 -118.941L874.877 -120.569L878.07 -122.047L881.263 -123.366L884.456 -124.518L887.649 -125.496L890.842 -126.294L894.035 -126.907L897.228 -127.33L900.421 -127.563L903.614 -127.602L906.807 -127.449L910 -127.103L913.193 -126.567L916.386 -125.844L919.579 -124.939L922.772 -123.857L925.965 -122.605L929.158 -121.191L932.351 -119.624L935.544 -117.912L938.737 -116.067L941.93 -114.1L945.123 -112.023L948.316 -109.848L951.509 -107.591L954.702 -105.263L957.895 -102.88L961.088 -100.456L964.281 -98.0067L970.667 -93.0908L973.86 -90.6547L977.053 -88.2533L980.246 -85.9013L983.439 -83.6133L986.631 -81.4033L989.825 -79.285L993.017 -77.2715L996.21 -75.3751L999.403 -73.6076L1002.6 -71.9798L1005.79 -70.5018L1008.98 -69.1827L1012.18 -68.0306L1015.37 -67.0527L1018.56 -66.2549L1021.75 -65.6422L1024.95 -65.2184L1028.14 -64.986L1031.33 -64.9465L1034.53 -65.1002L1037.72 -65.4461L1040.91 -65.982L1044.11 -66.7048L1047.3 -67.6098L1050.49 -68.6915L1053.68 -69.9433L1056.88 -71.3575L1060.07 -72.9252L1063.26 -74.637L1066.46 -76.4821L1069.65 -78.4492L1072.84 -80.5263L1076.03 -82.7004L1079.23 -84.9582L1082.42 -87.2858L1085.61 -89.6688L1088.81 -92.0926L1092 -94.5421L1098.39 -99.458L1101.58 -101.894L1104.77 -104.296L1107.96 -106.648L1111.16 -108.936L1114.35 -111.146L1117.54 -113.264L1120.74 -115.277L1123.93 -117.174L1127.12 -118.941L1130.32 -120.569L1133.51 -122.047L1136.7 -123.366L1139.89 -124.518L1143.09 -125.496L1146.28 -126.294L1149.47 -126.907L1152.67 -127.33L1155.86 -127.563L1159.05 -127.602L1162.25 -127.449L1165.44 -127.103L1168.63 -126.567L1171.82 -125.844L1175.02 -124.939L1178.21 -123.857L1181.4 -122.605L1184.6 -121.191L1187.79 -119.624L1190.98 -117.912L1194.18 -116.067L1197.37 -114.1L1200.56 -112.023L1203.75 -109.848L1206.95 -107.591L1210.14 -105.263L1213.33 -102.88L1216.53 -100.456L1219.72 -98.0067L1226.11 -93.0908L1229.3 -90.6547L1232.49 -88.2533L1235.68 -85.9013L1238.88 -83.6133L1242.07 -81.4033L1245.26 -79.285L1248.46 -77.2715L1251.65 -75.3751L1254.84 -73.6076L1258.04 -71.9798L1261.23 -70.5018L1264.42 -69.1827L1267.61 -68.0306L1270.81 -67.0527L1274 -66.2549M0 -15.5176L3.19298 -15.0937L6.38596 -14.8614L9.57895 -14.8219L12.7719 -14.9756L15.9649 -15.3215L19.1579 -15.8574L22.3509 -16.5802L25.5439 -17.4852L28.7368 -18.5669L31.9298 -19.8187L35.1228 -21.2329L38.3158 -22.8006L41.5088 -24.5123L44.7018 -26.3575L47.8947 -28.3246L51.0877 -30.4017L54.2807 -32.5758L57.4737 -34.8336L60.6667 -37.1612L63.8596 -39.5442L67.0526 -41.968L70.2456 -44.4175L76.6316 -49.3334L79.8246 -51.7695L83.0175 -54.1709L86.2105 -56.5229L89.4035 -58.811L92.5965 -61.0209L95.7895 -63.1392L98.9825 -65.1528L102.175 -67.0491L105.368 -68.8167L108.561 -70.4444L111.754 -71.9224L114.947 -73.2415L118.14 -74.3936L121.333 -75.3715L124.526 -76.1693L127.719 -76.782L130.912 -77.2059L134.105 -77.4382L137.298 -77.4777L140.491 -77.324L143.684 -76.9781L146.877 -76.4422L150.07 -75.7195L153.263 -74.8144L156.456 -73.7327L159.649 -72.4809L162.842 -71.0667L166.035 -69.499L169.228 -67.7873L172.421 -65.9421L175.614 -63.975L178.807 -61.8979L182 -59.7238L185.193 -57.466L188.386 -55.1384L191.579 -52.7554L194.772 -50.3316L197.965 -47.8821L204.351 -42.9662L207.544 -40.5301L210.737 -38.1287L213.93 -35.7767L217.123 -33.4887L220.316 -31.2787L223.509 -29.1604L226.702 -27.1469L229.895 -25.2505L233.088 -23.4829L236.281 -21.8552L239.474 -20.3772L242.667 -19.0581L245.86 -17.906L249.053 -16.9281L252.246 -16.1303L255.439 -15.5176L258.632 -15.0937L261.825 -14.8614L265.018 -14.8219L268.211 -14.9756L271.403 -15.3215L274.596 -15.8574L277.789 -16.5802L280.982 -17.4852L284.175 -18.5669L287.368 -19.8187L290.561 -21.2329L293.754 -22.8006L296.947 -24.5123L300.14 -26.3575L303.333 -28.3246L306.526 -30.4017L309.719 -32.5758L312.912 -34.8336L316.105 -37.1612L319.298 -39.5442L322.491 -41.968L325.684 -44.4175L332.07 -49.3334L335.263 -51.7695L338.456 -54.1709L341.649 -56.5229L344.842 -58.811L348.035 -61.0209L351.228 -63.1392L354.421 -65.1528L357.614 -67.0491L360.807 -68.8167L364 -70.4444L367.193 -71.9224L370.386 -73.2415L373.579 -74.3936L376.772 -75.3715L379.965 -76.1693L383.158 -76.782L386.351 -77.2059L389.544 -77.4382L392.737 -77.4777L395.93 -77.324L399.123 -76.9781L402.316 -76.4422L405.509 -75.7195L408.702 -74.8144L411.895 -73.7327L415.088 -72.4809L418.281 -71.0667L421.474 -69.499L424.667 -67.7873L427.86 -65.9421L431.053 -63.975L434.246 -61.8979L437.439 -59.7238L440.632 -57.466L443.825 -55.1384L447.018 -52.7554L450.211 -50.3316L453.403 -47.8821L459.789 -42.9662L462.982 -40.5301L466.175 -38.1287L469.368 -35.7767L472.561 -33.4887L475.754 -31.2787L478.947 -29.1604L482.14 -27.1469L485.333 -25.2505L488.526 -23.4829L491.719 -21.8552L494.912 -20.3772L498.105 -19.0581L501.298 -17.906L504.491 -16.9281L507.684 -16.1303L510.877 -15.5176L514.07 -15.0937L517.263 -14.8614L520.456 -14.8219L523.649 -14.9756L526.842 -15.3215L530.035 -15.8574L533.228 -16.5802L536.421 -17.4852L539.614 -18.5669L542.807 -19.8187L546 -21.2329L549.193 -22.8006L552.386 -24.5123L555.579 -26.3575L558.772 -28.3246L561.965 -30.4017L565.158 -32.5758L568.351 -34.8336L571.544 -37.1612L574.737 -39.5442L577.93 -41.968L581.123 -44.4175L587.509 -49.3334L590.702 -51.7695L593.895 -54.1709L597.088 -56.5229L600.281 -58.811L603.474 -61.0209L606.667 -63.1392L609.86 -65.1528L613.053 -67.0491L616.246 -68.8167L619.439 -70.4444L622.632 -71.9224L625.825 -73.2415L629.018 -74.3936L632.211 -75.3715L635.403 -76.1693L638.596 -76.782L641.789 -77.2059L644.982 -77.4382L648.175 -77.4777L651.368 -77.324L654.561 -76.9781L657.754 -76.4422L660.947 -75.7195L664.14 -74.8144L667.333 -73.7327L670.526 -72.4809L673.719 -71.0667L676.912 -69.499L680.105 -67.7873L683.298 -65.9421L686.491 -63.975L689.684 -61.8979L692.877 -59.7238L696.07 -57.466L699.263 -55.1384L702.456 -52.7554L705.649 -50.3316L708.842 -47.8821L715.228 -42.9662L718.421 -40.5301L721.614 -38.1287L724.807 -35.7767L728 -33.4887L731.193 -31.2787L734.386 -29.1604L737.579 -27.1469L740.772 -25.2505L743.965 -23.4829L747.158 -21.8552L750.351 -20.3772L753.544 -19.0581L756.737 -17.906L759.93 -16.9281L763.123 -16.1303L766.316 -15.5176L769.509 -15.0937L772.702 -14.8614L775.895 -14.8219L779.088 -14.9756L782.281 -15.3215L785.474 -15.8574L788.667 -16.5802L791.86 -17.4852L795.053 -18.5669L798.246 -19.8187L801.439 -21.2329L804.632 -22.8006L807.825 -24.5123L811.017 -26.3575L814.211 -28.3246L817.403 -30.4017L820.596 -32.5758L823.789 -34.8336L826.982 -37.1612L830.175 -39.5442L833.368 -41.968L836.561 -44.4175L842.947 -49.3334L846.14 -51.7695L849.333 -54.1709L852.526 -56.5229L855.719 -58.811L858.912 -61.0209L862.105 -63.1392L865.298 -65.1528L868.491 -67.0491L871.684 -68.8167L874.877 -70.4444L878.07 -71.9224L881.263 -73.2415L884.456 -74.3936L887.649 -75.3715L890.842 -76.1693L894.035 -76.782L897.228 -77.2059L900.421 -77.4382L903.614 -77.4777L906.807 -77.324L910 -76.9781L913.193 -76.4422L916.386 -75.7195L919.579 -74.8144L922.772 -73.7327L925.965 -72.4809L929.158 -71.0667L932.351 -69.499L935.544 -67.7873L938.737 -65.9421L941.93 -63.975L945.123 -61.8979L948.316 -59.7238L951.509 -57.466L954.702 -55.1384L957.895 -52.7554L961.088 -50.3316L964.281 -47.8821L970.667 -42.9662L973.86 -40.5301L977.053 -38.1287L980.246 -35.7767L983.439 -33.4887L986.631 -31.2787L989.825 -29.1604L993.017 -27.1469L996.21 -25.2505L999.403 -23.4829L1002.6 -21.8552L1005.79 -20.3772L1008.98 -19.0581L1012.18 -17.906L1015.37 -16.9281L1018.56 -16.1303L1021.75 -15.5176L1024.95 -15.0937L1028.14 -14.8614L1031.33 -14.8219L1034.53 -14.9756L1037.72 -15.3215L1040.91 -15.8574L1044.11 -16.5802L1047.3 -17.4852L1050.49 -18.5669L1053.68 -19.8187L1056.88 -21.2329L1060.07 -22.8006L1063.26 -24.5123L1066.46 -26.3575L1069.65 -28.3246L1072.84 -30.4017L1076.03 -32.5758L1079.23 -34.8336L1082.42 -37.1612L1085.61 -39.5442L1088.81 -41.968L1092 -44.4175L1098.39 -49.3334L1101.58 -51.7695L1104.77 -54.1709L1107.96 -56.5229L1111.16 -58.811L1114.35 -61.0209L1117.54 -63.1392L1120.74 -65.1528L1123.93 -67.0491L1127.12 -68.8167L1130.32 -70.4444L1133.51 -71.9224L1136.7 -73.2415L1139.89 -74.3936L1143.09 -75.3715L1146.28 -76.1693L1149.47 -76.782L1152.67 -77.2059L1155.86 -77.4382L1159.05 -77.4777L1162.25 -77.324L1165.44 -76.9781L1168.63 -76.4422L1171.82 -75.7195L1175.02 -74.8144L1178.21 -73.7327L1181.4 -72.4809L1184.6 -71.0667L1187.79 -69.499L1190.98 -67.7873L1194.18 -65.9421L1197.37 -63.975L1200.56 -61.8979L1203.75 -59.7238L1206.95 -57.466L1210.14 -55.1384L1213.33 -52.7554L1216.53 -50.3316L1219.72 -47.8821L1226.11 -42.9662L1229.3 -40.5301L1232.49 -38.1287L1235.68 -35.7767L1238.88 -33.4887L1242.07 -31.2787L1245.26 -29.1604L1248.46 -27.1469L1251.65 -25.2505L1254.84 -23.4829L1258.04 -21.8552L1261.23 -20.3772L1264.42 -19.0581L1267.61 -17.906L1270.81 -16.9281L1274 -16.1303M0 34.607L3.19298 35.0309L6.38596 35.2632L9.57895 35.3027L12.7719 35.149L15.9649 34.8031L19.1579 34.2672L22.3509 33.5445L25.5439 32.6394L28.7368 31.5577L31.9298 30.3059L35.1228 28.8917L38.3158 27.324L41.5088 25.6123L44.7018 23.7671L47.8947 21.8L51.0877 19.7229L54.2807 17.5488L57.4737 15.291L60.6667 12.9634L63.8596 10.5804L67.0526 8.15663L70.2456 5.70711L76.6316 0.791202L79.8246 -1.64489L83.0175 -4.04632L86.2105 -6.39829L89.4035 -8.68635L92.5965 -10.8963L95.7895 -13.0146L98.9825 -15.0281L102.175 -16.9245L105.368 -18.6921L108.561 -20.3198L111.754 -21.7978L114.947 -23.1169L118.14 -24.269L121.333 -25.2469L124.526 -26.0447L127.719 -26.6574L130.912 -27.0812L134.105 -27.3136L137.298 -27.3531L140.491 -27.1994L143.684 -26.8535L146.877 -26.3176L150.07 -25.5948L153.263 -24.6898L156.456 -23.6081L159.649 -22.3563L162.842 -20.9421L166.035 -19.3744L169.228 -17.6627L172.421 -15.8175L175.614 -13.8504L178.807 -11.7733L182 -9.59919L185.193 -7.34136L188.386 -5.01377L191.579 -2.63077L194.772 -0.207015L197.965 2.24251L204.351 7.15841L207.544 9.5945L210.737 11.9959L213.93 14.3479L217.123 16.636L220.316 18.8459L223.509 20.9642L226.702 22.9778L229.895 24.8741L233.088 26.6417L236.281 28.2694L239.474 29.7475L242.667 31.0665L245.86 32.2186L249.053 33.1965L252.246 33.9943L255.439 34.607L258.632 35.0309L261.825 35.2632L265.018 35.3027L268.211 35.149L271.403 34.8031L274.596 34.2672L277.789 33.5445L280.982 32.6394L284.175 31.5577L287.368 30.3059L290.561 28.8917L293.754 27.324L296.947 25.6123L300.14 23.7671L303.333 21.8L306.526 19.7229L309.719 17.5488L312.912 15.291L316.105 12.9634L319.298 10.5804L322.491 8.15663L325.684 5.70711L332.07 0.791202L335.263 -1.64489L338.456 -4.04632L341.649 -6.39829L344.842 -8.68635L348.035 -10.8963L351.228 -13.0146L354.421 -15.0281L357.614 -16.9245L360.807 -18.6921L364 -20.3198L367.193 -21.7978L370.386 -23.1169L373.579 -24.269L376.772 -25.2469L379.965 -26.0447L383.158 -26.6574L386.351 -27.0812L389.544 -27.3136L392.737 -27.3531L395.93 -27.1994L399.123 -26.8535L402.316 -26.3176L405.509 -25.5948L408.702 -24.6898L411.895 -23.6081L415.088 -22.3563L418.281 -20.9421L421.474 -19.3744L424.667 -17.6627L427.86 -15.8175L431.053 -13.8504L434.246 -11.7733L437.439 -9.59919L440.632 -7.34136L443.825 -5.01377L447.018 -2.63077L450.211 -0.207015L453.403 2.24251L459.789 7.15841L462.982 9.5945L466.175 11.9959L469.368 14.3479L472.561 16.636L475.754 18.8459L478.947 20.9642L482.14 22.9778L485.333 24.8741L488.526 26.6417L491.719 28.2694L494.912 29.7475L498.105 31.0665L501.298 32.2186L504.491 33.1965L507.684 33.9943L510.877 34.607L514.07 35.0309L517.263 35.2632L520.456 35.3027L523.649 35.149L526.842 34.8031L530.035 34.2672L533.228 33.5445L536.421 32.6394L539.614 31.5577L542.807 30.3059L546 28.8917L549.193 27.324L552.386 25.6123L555.579 23.7671L558.772 21.8L561.965 19.7229L565.158 17.5488L568.351 15.291L571.544 12.9634L574.737 10.5804L577.93 8.15663L581.123 5.70711L587.509 0.791202L590.702 -1.64489L593.895 -4.04632L597.088 -6.39829L600.281 -8.68635L603.474 -10.8963L606.667 -13.0146L609.86 -15.0281L613.053 -16.9245L616.246 -18.6921L619.439 -20.3198L622.632 -21.7978L625.825 -23.1169L629.018 -24.269L632.211 -25.2469L635.403 -26.0447L638.596 -26.6574L641.789 -27.0812L644.982 -27.3136L648.175 -27.3531L651.368 -27.1994L654.561 -26.8535L657.754 -26.3176L660.947 -25.5948L664.14 -24.6898L667.333 -23.6081L670.526 -22.3563L673.719 -20.9421L676.912 -19.3744L680.105 -17.6627L683.298 -15.8175L686.491 -13.8504L689.684 -11.7733L692.877 -9.59919L696.07 -7.34136L699.263 -5.01377L702.456 -2.63077L705.649 -0.207015L708.842 2.24251L715.228 7.15841L718.421 9.5945L721.614 11.9959L724.807 14.3479L728 16.636L731.193 18.8459L734.386 20.9642L737.579 22.9778L740.772 24.8741L743.965 26.6417L747.158 28.2694L750.351 29.7475L753.544 31.0665L756.737 32.2186L759.93 33.1965L763.123 33.9943L766.316 34.607L769.509 35.0309L772.702 35.2632L775.895 35.3027L779.088 35.149L782.281 34.8031L785.474 34.2672L788.667 33.5445L791.86 32.6394L795.053 31.5577L798.246 30.3059L801.439 28.8917L804.632 27.324L807.825 25.6123L811.017 23.7671L814.211 21.8L817.403 19.7229L820.596 17.5488L823.789 15.291L826.982 12.9634L830.175 10.5804L833.368 8.15663L836.561 5.70711L842.947 0.791202L846.14 -1.64489L849.333 -4.04632L852.526 -6.39829L855.719 -8.68635L858.912 -10.8963L862.105 -13.0146L865.298 -15.0281L868.491 -16.9245L871.684 -18.6921L874.877 -20.3198L878.07 -21.7978L881.263 -23.1169L884.456 -24.269L887.649 -25.2469L890.842 -26.0447L894.035 -26.6574L897.228 -27.0812L900.421 -27.3136L903.614 -27.3531L906.807 -27.1994L910 -26.8535L913.193 -26.3176L916.386 -25.5948L919.579 -24.6898L922.772 -23.6081L925.965 -22.3563L929.158 -20.9421L932.351 -19.3744L935.544 -17.6627L938.737 -15.8175L941.93 -13.8504L945.123 -11.7733L948.316 -9.59919L951.509 -7.34136L954.702 -5.01377L957.895 -2.63077L961.088 -0.207015L964.281 2.24251L970.667 7.15841L973.86 9.5945L977.053 11.9959L980.246 14.3479L983.439 16.636L986.631 18.8459L989.825 20.9642L993.017 22.9778L996.21 24.8741L999.403 26.6417L1002.6 28.2694L1005.79 29.7475L1008.98 31.0665L1012.18 32.2186L1015.37 33.1965L1018.56 33.9943L1021.75 34.607L1024.95 35.0309L1028.14 35.2632L1031.33 35.3027L1034.53 35.149L1037.72 34.8031L1040.91 34.2672L1044.11 33.5445L1047.3 32.6394L1050.49 31.5577L1053.68 30.3059L1056.88 28.8917L1060.07 27.324L1063.26 25.6123L1066.46 23.7671L1069.65 21.8L1072.84 19.7229L1076.03 17.5488L1079.23 15.291L1082.42 12.9634L1085.61 10.5804L1088.81 8.15663L1092 5.70711L1098.39 0.791202L1101.58 -1.64489L1104.77 -4.04632L1107.96 -6.39829L1111.16 -8.68635L1114.35 -10.8963L1117.54 -13.0146L1120.74 -15.0281L1123.93 -16.9245L1127.12 -18.6921L1130.32 -20.3198L1133.51 -21.7978L1136.7 -23.1169L1139.89 -24.269L1143.09 -25.2469L1146.28 -26.0447L1149.47 -26.6574L1152.67 -27.0812L1155.86 -27.3136L1159.05 -27.3531L1162.25 -27.1994L1165.44 -26.8535L1168.63 -26.3176L1171.82 -25.5948L1175.02 -24.6898L1178.21 -23.6081L1181.4 -22.3563L1184.6 -20.9421L1187.79 -19.3744L1190.98 -17.6627L1194.18 -15.8175L1197.37 -13.8504L1200.56 -11.7733L1203.75 -9.59919L1206.95 -7.34136L1210.14 -5.01377L1213.33 -2.63077L1216.53 -0.207015L1219.72 2.24251L1226.11 7.15841L1229.3 9.5945L1232.49 11.9959L1235.68 14.3479L1238.88 16.636L1242.07 18.8459L1245.26 20.9642L1248.46 22.9778L1251.65 24.8741L1254.84 26.6417L1258.04 28.2694L1261.23 29.7475L1264.42 31.0665L1267.61 32.2186L1270.81 33.1965L1274 33.9943M0 84.7316L3.19298 85.1555L6.38596 85.3878L9.57895 85.4273L12.7719 85.2736L15.9649 84.9277L19.1579 84.3918L22.3509 83.6691L25.5439 82.7641L28.7368 81.6823L31.9298 80.4305L35.1228 79.0164L38.3158 77.4486L41.5088 75.7369L44.7018 73.8917L47.8947 71.9246L51.0877 69.8476L54.2807 67.6734L57.4737 65.4156L60.6667 63.088L63.8596 60.705L67.0526 58.2812L70.2456 55.8317L76.6316 50.9158L79.8246 48.4797L83.0175 46.0783L86.2105 43.7263L89.4035 41.4383L92.5965 39.2283L95.7895 37.11L98.9825 35.0965L102.175 33.2001L105.368 31.4326L108.561 29.8048L111.754 28.3268L114.947 27.0077L118.14 25.8556L121.333 24.8777L124.526 24.0799L127.719 23.4672L130.912 23.0434L134.105 22.811L137.298 22.7715L140.491 22.9252L143.684 23.2711L146.877 23.807L150.07 24.5298L153.263 25.4348L156.456 26.5165L159.649 27.7683L162.842 29.1825L166.035 30.7502L169.228 32.462L172.421 34.3071L175.614 36.2742L178.807 38.3513L182 40.5254L185.193 42.7832L188.386 45.1108L191.579 47.4938L194.772 49.9176L197.965 52.3671L204.351 57.283L207.544 59.7191L210.737 62.1205L213.93 64.4725L217.123 66.7606L220.316 68.9705L223.509 71.0888L226.702 73.1024L229.895 74.9987L233.088 76.7663L236.281 78.3941L239.474 79.872L242.667 81.1912L245.86 82.3432L249.053 83.3212L252.246 84.1189L255.439 84.7316L258.632 85.1555L261.825 85.3878L265.018 85.4273L268.211 85.2736L271.403 84.9277L274.596 84.3918L277.789 83.6691L280.982 82.7641L284.175 81.6823L287.368 80.4305L290.561 79.0164L293.754 77.4486L296.947 75.7369L300.14 73.8917L303.333 71.9246L306.526 69.8476L309.719 67.6734L312.912 65.4156L316.105 63.088L319.298 60.705L322.491 58.2812L325.684 55.8317L332.07 50.9158L335.263 48.4797L338.456 46.0783L341.649 43.7263L344.842 41.4383L348.035 39.2283L351.228 37.11L354.421 35.0965L357.614 33.2001L360.807 31.4326L364 29.8048L367.193 28.3268L370.386 27.0077L373.579 25.8556L376.772 24.8777L379.965 24.0799L383.158 23.4672L386.351 23.0434L389.544 22.811L392.737 22.7715L395.93 22.9252L399.123 23.2711L402.316 23.807L405.509 24.5298L408.702 25.4348L411.895 26.5165L415.088 27.7683L418.281 29.1825L421.474 30.7502L424.667 32.462L427.86 34.3071L431.053 36.2742L434.246 38.3513L437.439 40.5254L440.632 42.7832L443.825 45.1108L447.018 47.4938L450.211 49.9176L453.403 52.3671L459.789 57.283L462.982 59.7191L466.175 62.1205L469.368 64.4725L472.561 66.7606L475.754 68.9705L478.947 71.0888L482.14 73.1024L485.333 74.9987L488.526 76.7663L491.719 78.3941L494.912 79.872L498.105 81.1912L501.298 82.3432L504.491 83.3212L507.684 84.1189L510.877 84.7316L514.07 85.1555L517.263 85.3878L520.456 85.4273L523.649 85.2736L526.842 84.9277L530.035 84.3918L533.228 83.6691L536.421 82.7641L539.614 81.6823L542.807 80.4305L546 79.0164L549.193 77.4486L552.386 75.7369L555.579 73.8917L558.772 71.9246L561.965 69.8476L565.158 67.6734L568.351 65.4156L571.544 63.088L574.737 60.705L577.93 58.2812L581.123 55.8317L587.509 50.9158L590.702 48.4797L593.895 46.0783L597.088 43.7263L600.281 41.4383L603.474 39.2283L606.667 37.11L609.86 35.0965L613.053 33.2001L616.246 31.4326L619.439 29.8048L622.632 28.3268L625.825 27.0077L629.018 25.8556L632.211 24.8777L635.403 24.0799L638.596 23.4672L641.789 23.0434L644.982 22.811L648.175 22.7715L651.368 22.9252L654.561 23.2711L657.754 23.807L660.947 24.5298L664.14 25.4348L667.333 26.5165L670.526 27.7683L673.719 29.1825L676.912 30.7502L680.105 32.462L683.298 34.3071L686.491 36.2742L689.684 38.3513L692.877 40.5254L696.07 42.7832L699.263 45.1108L702.456 47.4938L705.649 49.9176L708.842 52.3671L715.228 57.283L718.421 59.7191L721.614 62.1205L724.807 64.4725L728 66.7606L731.193 68.9705L734.386 71.0888L737.579 73.1024L740.772 74.9987L743.965 76.7663L747.158 78.3941L750.351 79.872L753.544 81.1912L756.737 82.3432L759.93 83.3212L763.123 84.1189L766.316 84.7316L769.509 85.1555L772.702 85.3878L775.895 85.4273L779.088 85.2736L782.281 84.9277L785.474 84.3918L788.667 83.6691L791.86 82.7641L795.053 81.6823L798.246 80.4305L801.439 79.0164L804.632 77.4486L807.825 75.7369L811.017 73.8917L814.211 71.9246L817.403 69.8476L820.596 67.6734L823.789 65.4156L826.982 63.088L830.175 60.705L833.368 58.2812L836.561 55.8317L842.947 50.9158L846.14 48.4797L849.333 46.0783L852.526 43.7263L855.719 41.4383L858.912 39.2283L862.105 37.11L865.298 35.0965L868.491 33.2001L871.684 31.4326L874.877 29.8048L878.07 28.3268L881.263 27.0077L884.456 25.8556L887.649 24.8777L890.842 24.0799L894.035 23.4672L897.228 23.0434L900.421 22.811L903.614 22.7715L906.807 22.9252L910 23.2711L913.193 23.807L916.386 24.5298L919.579 25.4348L922.772 26.5165L925.965 27.7683L929.158 29.1825L932.351 30.7502L935.544 32.462L938.737 34.3071L941.93 36.2742L945.123 38.3513L948.316 40.5254L951.509 42.7832L954.702 45.1108L957.895 47.4938L961.088 49.9176L964.281 52.3671L970.667 57.283L973.86 59.7191L977.053 62.1205L980.246 64.4725L983.439 66.7606L986.631 68.9705L989.825 71.0888L993.017 73.1024L996.21 74.9987L999.403 76.7663L1002.6 78.3941L1005.79 79.872L1008.98 81.1912L1012.18 82.3432L1015.37 83.3212L1018.56 84.1189L1021.75 84.7316L1024.95 85.1555L1028.14 85.3878L1031.33 85.4273L1034.53 85.2736L1037.72 84.9277L1040.91 84.3918L1044.11 83.6691L1047.3 82.7641L1050.49 81.6823L1053.68 80.4305L1056.88 79.0164L1060.07 77.4486L1063.26 75.7369L1066.46 73.8917L1069.65 71.9246L1072.84 69.8476L1076.03 67.6734L1079.23 65.4156L1082.42 63.088L1085.61 60.705L1088.81 58.2812L1092 55.8317L1098.39 50.9158L1101.58 48.4797L1104.77 46.0783L1107.96 43.7263L1111.16 41.4383L1114.35 39.2283L1117.54 37.11L1120.74 35.0965L1123.93 33.2001L1127.12 31.4326L1130.32 29.8048L1133.51 28.3268L1136.7 27.0077L1139.89 25.8556L1143.09 24.8777L1146.28 24.0799L1149.47 23.4672L1152.67 23.0434L1155.86 22.811L1159.05 22.7715L1162.25 22.9252L1165.44 23.2711L1168.63 23.807L1171.82 24.5298L1175.02 25.4348L1178.21 26.5165L1181.4 27.7683L1184.6 29.1825L1187.79 30.7502L1190.98 32.462L1194.18 34.3071L1197.37 36.2742L1200.56 38.3513L1203.75 40.5254L1206.95 42.7832L1210.14 45.1108L1213.33 47.4938L1216.53 49.9176L1219.72 52.3671L1226.11 57.283L1229.3 59.7191L1232.49 62.1205L1235.68 64.4725L1238.88 66.7606L1242.07 68.9705L1245.26 71.0888L1248.46 73.1024L1251.65 74.9987L1254.84 76.7663L1258.04 78.3941L1261.23 79.872L1264.42 81.1912L1267.61 82.3432L1270.81 83.3212L1274 84.1189M0 131.524L3.19298 131.947L6.38596 132.18L9.57895 132.219L12.7719 132.065L15.9649 131.72L19.1579 131.184L22.3509 130.461L25.5439 129.556L28.7368 128.474L31.9298 127.222L35.1228 125.808L38.3158 124.24L41.5088 122.529L44.7018 120.684L47.8947 118.716L51.0877 116.639L54.2807 114.465L57.4737 112.207L60.6667 109.88L63.8596 107.497L67.0526 105.073L70.2456 102.624L76.6316 97.7077L79.8246 95.2716L83.0175 92.8701L86.2105 90.5182L89.4035 88.2301L92.5965 86.0202L95.7895 83.9019L98.9825 81.8883L102.175 79.992L105.368 78.2244L108.561 76.5966L111.754 75.1186L114.947 73.7995L118.14 72.6475L121.333 71.6695L124.526 70.8718L127.719 70.2591L130.912 69.8352L134.105 69.6029L137.298 69.5634L140.491 69.7171L143.684 70.063L146.877 70.5989L150.07 71.3216L153.263 72.2266L156.456 73.3084L159.649 74.5602L162.842 75.9743L166.035 77.5421L169.228 79.2538L172.421 81.0989L175.614 83.0661L178.807 85.1431L182 87.3173L185.193 89.5751L188.386 91.9027L191.579 94.2857L194.772 96.7094L197.965 99.159L204.351 104.075L207.544 106.511L210.737 108.912L213.93 111.264L217.123 113.552L220.316 115.762L223.509 117.881L226.702 119.894L229.895 121.791L233.088 123.558L236.281 125.186L239.474 126.664L242.667 127.983L245.86 129.135L249.053 130.113L252.246 130.911L255.439 131.524L258.632 131.947L261.825 132.18L265.018 132.219L268.211 132.065L271.403 131.72L274.596 131.184L277.789 130.461L280.982 129.556L284.175 128.474L287.368 127.222L290.561 125.808L293.754 124.24L296.947 122.529L300.14 120.684L303.333 118.716L306.526 116.639L309.719 114.465L312.912 112.207L316.105 109.88L319.298 107.497L322.491 105.073L325.684 102.624L332.07 97.7077L335.263 95.2716L338.456 92.8701L341.649 90.5182L344.842 88.2301L348.035 86.0202L351.228 83.9019L354.421 81.8883L357.614 79.992L360.807 78.2244L364 76.5966L367.193 75.1186L370.386 73.7995L373.579 72.6475L376.772 71.6695L379.965 70.8718L383.158 70.2591L386.351 69.8352L389.544 69.6029L392.737 69.5634L395.93 69.7171L399.123 70.063L402.316 70.5989L405.509 71.3216L408.702 72.2266L411.895 73.3084L415.088 74.5602L418.281 75.9743L421.474 77.5421L424.667 79.2538L427.86 81.0989L431.053 83.0661L434.246 85.1431L437.439 87.3173L440.632 89.5751L443.825 91.9027L447.018 94.2857L450.211 96.7094L453.403 99.159L459.789 104.075L462.982 106.511L466.175 108.912L469.368 111.264L472.561 113.552L475.754 115.762L478.947 117.881L482.14 119.894L485.333 121.791L488.526 123.558L491.719 125.186L494.912 126.664L498.105 127.983L501.298 129.135L504.491 130.113L507.684 130.911L510.877 131.524L514.07 131.947L517.263 132.18L520.456 132.219L523.649 132.065L526.842 131.72L530.035 131.184L533.228 130.461L536.421 129.556L539.614 128.474L542.807 127.222L546 125.808L549.193 124.24L552.386 122.529L555.579 120.684L558.772 118.716L561.965 116.639L565.158 114.465L568.351 112.207L571.544 109.88L574.737 107.497L577.93 105.073L581.123 102.624L587.509 97.7077L590.702 95.2716L593.895 92.8701L597.088 90.5182L600.281 88.2301L603.474 86.0202L606.667 83.9019L609.86 81.8883L613.053 79.992L616.246 78.2244L619.439 76.5966L622.632 75.1186L625.825 73.7995L629.018 72.6475L632.211 71.6695L635.403 70.8718L638.596 70.2591L641.789 69.8352L644.982 69.6029L648.175 69.5634L651.368 69.7171L654.561 70.063L657.754 70.5989L660.947 71.3216L664.14 72.2266L667.333 73.3084L670.526 74.5602L673.719 75.9743L676.912 77.5421L680.105 79.2538L683.298 81.0989L686.491 83.0661L689.684 85.1431L692.877 87.3173L696.07 89.5751L699.263 91.9027L702.456 94.2857L705.649 96.7094L708.842 99.159L715.228 104.075L718.421 106.511L721.614 108.912L724.807 111.264L728 113.552L731.193 115.762L734.386 117.881L737.579 119.894L740.772 121.791L743.965 123.558L747.158 125.186L750.351 126.664L753.544 127.983L756.737 129.135L759.93 130.113L763.123 130.911L766.316 131.524L769.509 131.947L772.702 132.18L775.895 132.219L779.088 132.065L782.281 131.72L785.474 131.184L788.667 130.461L791.86 129.556L795.053 128.474L798.246 127.222L801.439 125.808L804.632 124.24L807.825 122.529L811.017 120.684L814.211 118.716L817.403 116.639L820.596 114.465L823.789 112.207L826.982 109.88L830.175 107.497L833.368 105.073L836.561 102.624L842.947 97.7077L846.14 95.2716L849.333 92.8701L852.526 90.5182L855.719 88.2301L858.912 86.0202L862.105 83.9019L865.298 81.8883L868.491 79.992L871.684 78.2244L874.877 76.5966L878.07 75.1186L881.263 73.7995L884.456 72.6475L887.649 71.6695L890.842 70.8718L894.035 70.2591L897.228 69.8352L900.421 69.6029L903.614 69.5634L906.807 69.7171L910 70.063L913.193 70.5989L916.386 71.3216L919.579 72.2266L922.772 73.3084L925.965 74.5602L929.158 75.9743L932.351 77.5421L935.544 79.2538L938.737 81.0989L941.93 83.0661L945.123 85.1431L948.316 87.3173L951.509 89.5751L954.702 91.9027L957.895 94.2857L961.088 96.7094L964.281 99.159L970.667 104.075L973.86 106.511L977.053 108.912L980.246 111.264L983.439 113.552L986.631 115.762L989.825 117.881L993.017 119.894L996.21 121.791L999.403 123.558L1002.6 125.186L1005.79 126.664L1008.98 127.983L1012.18 129.135L1015.37 130.113L1018.56 130.911L1021.75 131.524L1024.95 131.947L1028.14 132.18L1031.33 132.219L1034.53 132.065L1037.72 131.72L1040.91 131.184L1044.11 130.461L1047.3 129.556L1050.49 128.474L1053.68 127.222L1056.88 125.808L1060.07 124.24L1063.26 122.529L1066.46 120.684L1069.65 118.716L1072.84 116.639L1076.03 114.465L1079.23 112.207L1082.42 109.88L1085.61 107.497L1088.81 105.073L1092 102.624L1098.39 97.7077L1101.58 95.2716L1104.77 92.8701L1107.96 90.5182L1111.16 88.2301L1114.35 86.0202L1117.54 83.9019L1120.74 81.8883L1123.93 79.992L1127.12 78.2244L1130.32 76.5966L1133.51 75.1186L1136.7 73.7995L1139.89 72.6475L1143.09 71.6695L1146.28 70.8718L1149.47 70.2591L1152.67 69.8352L1155.86 69.6029L1159.05 69.5634L1162.25 69.7171L1165.44 70.063L1168.63 70.5989L1171.82 71.3216L1175.02 72.2266L1178.21 73.3084L1181.4 74.5602L1184.6 75.9743L1187.79 77.5421L1190.98 79.2538L1194.18 81.0989L1197.37 83.0661L1200.56 85.1431L1203.75 87.3173L1206.95 89.5751L1210.14 91.9027L1213.33 94.2857L1216.53 96.7094L1219.72 99.159L1226.11 104.075L1229.3 106.511L1232.49 108.912L1235.68 111.264L1238.88 113.552L1242.07 115.762L1245.26 117.881L1248.46 119.894L1251.65 121.791L1254.84 123.558L1258.04 125.186L1261.23 126.664L1264.42 127.983L1267.61 129.135L1270.81 130.113L1274 130.911M0 181.648L3.19298 182.072L6.38596 182.304L9.57895 182.344L12.7719 182.19L15.9649 181.844L19.1579 181.308L22.3509 180.586L25.5439 179.681L28.7368 178.599L31.9298 177.347L35.1228 175.933L38.3158 174.365L41.5088 172.653L44.7018 170.808L47.8947 168.841L51.0877 166.764L54.2807 164.59L57.4737 162.332L60.6667 160.004L63.8596 157.621L67.0526 155.198L70.2456 152.748L76.6316 147.832L79.8246 145.396L83.0175 142.995L86.2105 140.643L89.4035 138.355L92.5965 136.145L95.7895 134.026L98.9825 132.013L102.175 130.117L105.368 128.349L108.561 126.721L111.754 125.243L114.947 123.924L118.14 122.772L121.333 121.794L124.526 120.996L127.719 120.384L130.912 119.96L134.105 119.727L137.298 119.688L140.491 119.842L143.684 120.188L146.877 120.724L150.07 121.446L153.263 122.351L156.456 123.433L159.649 124.685L162.842 126.099L166.035 127.667L169.228 129.378L172.421 131.224L175.614 133.191L178.807 135.268L182 137.442L185.193 139.7L188.386 142.027L191.579 144.41L194.772 146.834L197.965 149.284L204.351 154.199L207.544 156.636L210.737 159.037L213.93 161.389L217.123 163.677L220.316 165.887L223.509 168.005L226.702 170.019L229.895 171.915L233.088 173.683L236.281 175.311L239.474 176.789L242.667 178.108L245.86 179.26L249.053 180.238L252.246 181.035L255.439 181.648L258.632 182.072L261.825 182.304L265.018 182.344L268.211 182.19L271.403 181.844L274.596 181.308L277.789 180.586L280.982 179.681L284.175 178.599L287.368 177.347L290.561 175.933L293.754 174.365L296.947 172.653L300.14 170.808L303.333 168.841L306.526 166.764L309.719 164.59L312.912 162.332L316.105 160.004L319.298 157.621L322.491 155.198L325.684 152.748L332.07 147.832L335.263 145.396L338.456 142.995L341.649 140.643L344.842 138.355L348.035 136.145L351.228 134.026L354.421 132.013L357.614 130.117L360.807 128.349L364 126.721L367.193 125.243L370.386 123.924L373.579 122.772L376.772 121.794L379.965 120.996L383.158 120.384L386.351 119.96L389.544 119.727L392.737 119.688L395.93 119.842L399.123 120.188L402.316 120.724L405.509 121.446L408.702 122.351L411.895 123.433L415.088 124.685L418.281 126.099L421.474 127.667L424.667 129.378L427.86 131.224L431.053 133.191L434.246 135.268L437.439 137.442L440.632 139.7L443.825 142.027L447.018 144.41L450.211 146.834L453.403 149.284L459.789 154.199L462.982 156.636L466.175 159.037L469.368 161.389L472.561 163.677L475.754 165.887L478.947 168.005L482.14 170.019L485.333 171.915L488.526 173.683L491.719 175.311L494.912 176.789L498.105 178.108L501.298 179.26L504.491 180.238L507.684 181.035L510.877 181.648L514.07 182.072L517.263 182.304L520.456 182.344L523.649 182.19L526.842 181.844L530.035 181.308L533.228 180.586L536.421 179.681L539.614 178.599L542.807 177.347L546 175.933L549.193 174.365L552.386 172.653L555.579 170.808L558.772 168.841L561.965 166.764L565.158 164.59L568.351 162.332L571.544 160.004L574.737 157.621L577.93 155.198L581.123 152.748L587.509 147.832L590.702 145.396L593.895 142.995L597.088 140.643L600.281 138.355L603.474 136.145L606.667 134.026L609.86 132.013L613.053 130.117L616.246 128.349L619.439 126.721L622.632 125.243L625.825 123.924L629.018 122.772L632.211 121.794L635.403 120.996L638.596 120.384L641.789 119.96L644.982 119.727L648.175 119.688L651.368 119.842L654.561 120.188L657.754 120.724L660.947 121.446L664.14 122.351L667.333 123.433L670.526 124.685L673.719 126.099L676.912 127.667L680.105 129.378L683.298 131.224L686.491 133.191L689.684 135.268L692.877 137.442L696.07 139.7L699.263 142.027L702.456 144.41L705.649 146.834L708.842 149.284L715.228 154.199L718.421 156.636L721.614 159.037L724.807 161.389L728 163.677L731.193 165.887L734.386 168.005L737.579 170.019L740.772 171.915L743.965 173.683L747.158 175.311L750.351 176.789L753.544 178.108L756.737 179.26L759.93 180.238L763.123 181.035L766.316 181.648L769.509 182.072L772.702 182.304L775.895 182.344L779.088 182.19L782.281 181.844L785.474 181.308L788.667 180.586L791.86 179.681L795.053 178.599L798.246 177.347L801.439 175.933L804.632 174.365L807.825 172.653L811.017 170.808L814.211 168.841L817.403 166.764L820.596 164.59L823.789 162.332L826.982 160.004L830.175 157.621L833.368 155.198L836.561 152.748L842.947 147.832L846.14 145.396L849.333 142.995L852.526 140.643L855.719 138.355L858.912 136.145L862.105 134.026L865.298 132.013L868.491 130.117L871.684 128.349L874.877 126.721L878.07 125.243L881.263 123.924L884.456 122.772L887.649 121.794L890.842 120.996L894.035 120.384L897.228 119.96L900.421 119.727L903.614 119.688L906.807 119.842L910 120.188L913.193 120.724L916.386 121.446L919.579 122.351L922.772 123.433L925.965 124.685L929.158 126.099L932.351 127.667L935.544 129.378L938.737 131.224L941.93 133.191L945.123 135.268L948.316 137.442L951.509 139.7L954.702 142.027L957.895 144.41L961.088 146.834L964.281 149.284L970.667 154.199L973.86 156.636L977.053 159.037L980.246 161.389L983.439 163.677L986.631 165.887L989.825 168.005L993.017 170.019L996.21 171.915L999.403 173.683L1002.6 175.311L1005.79 176.789L1008.98 178.108L1012.18 179.26L1015.37 180.238L1018.56 181.035L1021.75 181.648L1024.95 182.072L1028.14 182.304L1031.33 182.344L1034.53 182.19L1037.72 181.844L1040.91 181.308L1044.11 180.586L1047.3 179.681L1050.49 178.599L1053.68 177.347L1056.88 175.933L1060.07 174.365L1063.26 172.653L1066.46 170.808L1069.65 168.841L1072.84 166.764L1076.03 164.59L1079.23 162.332L1082.42 160.004L1085.61 157.621L1088.81 155.198L1092 152.748L1098.39 147.832L1101.58 145.396L1104.77 142.995L1107.96 140.643L1111.16 138.355L1114.35 136.145L1117.54 134.026L1120.74 132.013L1123.93 130.117L1127.12 128.349L1130.32 126.721L1133.51 125.243L1136.7 123.924L1139.89 122.772L1143.09 121.794L1146.28 120.996L1149.47 120.384L1152.67 119.96L1155.86 119.727L1159.05 119.688L1162.25 119.842L1165.44 120.188L1168.63 120.724L1171.82 121.446L1175.02 122.351L1178.21 123.433L1181.4 124.685L1184.6 126.099L1187.79 127.667L1190.98 129.378L1194.18 131.224L1197.37 133.191L1200.56 135.268L1203.75 137.442L1206.95 139.7L1210.14 142.027L1213.33 144.41L1216.53 146.834L1219.72 149.284L1226.11 154.199L1229.3 156.636L1232.49 159.037L1235.68 161.389L1238.88 163.677L1242.07 165.887L1245.26 168.005L1248.46 170.019L1251.65 171.915L1254.84 173.683L1258.04 175.311L1261.23 176.789L1264.42 178.108L1267.61 179.26L1270.81 180.238L1274 181.035M0 231.773L3.19298 232.197L6.38596 232.429L9.57895 232.468L12.7719 232.315L15.9649 231.969L19.1579 231.433L22.3509 230.71L25.5439 229.805L28.7368 228.723L31.9298 227.472L35.1228 226.057L38.3158 224.49L41.5088 222.778L44.7018 220.933L47.8947 218.966L51.0877 216.889L54.2807 214.715L57.4737 212.457L60.6667 210.129L63.8596 207.746L67.0526 205.322L70.2456 202.873L76.6316 197.957L79.8246 195.521L83.0175 193.119L86.2105 190.767L89.4035 188.479L92.5965 186.269L95.7895 184.151L98.9825 182.138L102.175 180.241L105.368 178.474L108.561 176.846L111.754 175.368L114.947 174.049L118.14 172.897L121.333 171.919L124.526 171.121L127.719 170.508L130.912 170.084L134.105 169.852L137.298 169.813L140.491 169.966L143.684 170.312L146.877 170.848L150.07 171.571L153.263 172.476L156.456 173.558L159.649 174.809L162.842 176.224L166.035 177.791L169.228 179.503L172.421 181.348L175.614 183.315L178.807 185.392L182 187.566L185.193 189.824L188.386 192.152L191.579 194.535L194.772 196.959L197.965 199.408L204.351 204.324L207.544 206.76L210.737 209.162L213.93 211.514L217.123 213.802L220.316 216.012L223.509 218.13L226.702 220.143L229.895 222.04L233.088 223.807L236.281 225.435L239.474 226.913L242.667 228.232L245.86 229.384L249.053 230.362L252.246 231.16L255.439 231.773L258.632 232.197L261.825 232.429L265.018 232.468L268.211 232.315L271.403 231.969L274.596 231.433L277.789 230.71L280.982 229.805L284.175 228.723L287.368 227.472L290.561 226.057L293.754 224.49L296.947 222.778L300.14 220.933L303.333 218.966L306.526 216.889L309.719 214.715L312.912 212.457L316.105 210.129L319.298 207.746L322.491 205.322L325.684 202.873L332.07 197.957L335.263 195.521L338.456 193.119L341.649 190.767L344.842 188.479L348.035 186.269L351.228 184.151L354.421 182.138L357.614 180.241L360.807 178.474L364 176.846L367.193 175.368L370.386 174.049L373.579 172.897L376.772 171.919L379.965 171.121L383.158 170.508L386.351 170.084L389.544 169.852L392.737 169.813L395.93 169.966L399.123 170.312L402.316 170.848L405.509 171.571L408.702 172.476L411.895 173.558L415.088 174.809L418.281 176.224L421.474 177.791L424.667 179.503L427.86 181.348L431.053 183.315L434.246 185.392L437.439 187.566L440.632 189.824L443.825 192.152L447.018 194.535L450.211 196.959L453.403 199.408L459.789 204.324L462.982 206.76L466.175 209.162L469.368 211.514L472.561 213.802L475.754 216.012L478.947 218.13L482.14 220.143L485.333 222.04L488.526 223.807L491.719 225.435L494.912 226.913L498.105 228.232L501.298 229.384L504.491 230.362L507.684 231.16L510.877 231.773L514.07 232.197L517.263 232.429L520.456 232.468L523.649 232.315L526.842 231.969L530.035 231.433L533.228 230.71L536.421 229.805L539.614 228.723L542.807 227.472L546 226.057L549.193 224.49L552.386 222.778L555.579 220.933L558.772 218.966L561.965 216.889L565.158 214.715L568.351 212.457L571.544 210.129L574.737 207.746L577.93 205.322L581.123 202.873L587.509 197.957L590.702 195.521L593.895 193.119L597.088 190.767L600.281 188.479L603.474 186.269L606.667 184.151L609.86 182.138L613.053 180.241L616.246 178.474L619.439 176.846L622.632 175.368L625.825 174.049L629.018 172.897L632.211 171.919L635.403 171.121L638.596 170.508L641.789 170.084L644.982 169.852L648.175 169.813L651.368 169.966L654.561 170.312L657.754 170.848L660.947 171.571L664.14 172.476L667.333 173.558L670.526 174.809L673.719 176.224L676.912 177.791L680.105 179.503L683.298 181.348L686.491 183.315L689.684 185.392L692.877 187.566L696.07 189.824L699.263 192.152L702.456 194.535L705.649 196.959L708.842 199.408L715.228 204.324L718.421 206.76L721.614 209.162L724.807 211.514L728 213.802L731.193 216.012L734.386 218.13L737.579 220.143L740.772 222.04L743.965 223.807L747.158 225.435L750.351 226.913L753.544 228.232L756.737 229.384L759.93 230.362L763.123 231.16L766.316 231.773L769.509 232.197L772.702 232.429L775.895 232.468L779.088 232.315L782.281 231.969L785.474 231.433L788.667 230.71L791.86 229.805L795.053 228.723L798.246 227.472L801.439 226.057L804.632 224.49L807.825 222.778L811.017 220.933L814.211 218.966L817.403 216.889L820.596 214.715L823.789 212.457L826.982 210.129L830.175 207.746L833.368 205.322L836.561 202.873L842.947 197.957L846.14 195.521L849.333 193.119L852.526 190.767L855.719 188.479L858.912 186.269L862.105 184.151L865.298 182.138L868.491 180.241L871.684 178.474L874.877 176.846L878.07 175.368L881.263 174.049L884.456 172.897L887.649 171.919L890.842 171.121L894.035 170.508L897.228 170.084L900.421 169.852L903.614 169.813L906.807 169.966L910 170.312L913.193 170.848L916.386 171.571L919.579 172.476L922.772 173.558L925.965 174.809L929.158 176.224L932.351 177.791L935.544 179.503L938.737 181.348L941.93 183.315L945.123 185.392L948.316 187.566L951.509 189.824L954.702 192.152L957.895 194.535L961.088 196.959L964.281 199.408L970.667 204.324L973.86 206.76L977.053 209.162L980.246 211.514L983.439 213.802L986.631 216.012L989.825 218.13L993.017 220.143L996.21 222.04L999.403 223.807L1002.6 225.435L1005.79 226.913L1008.98 228.232L1012.18 229.384L1015.37 230.362L1018.56 231.16L1021.75 231.773L1024.95 232.197L1028.14 232.429L1031.33 232.468L1034.53 232.315L1037.72 231.969L1040.91 231.433L1044.11 230.71L1047.3 229.805L1050.49 228.723L1053.68 227.472L1056.88 226.057L1060.07 224.49L1063.26 222.778L1066.46 220.933L1069.65 218.966L1072.84 216.889L1076.03 214.715L1079.23 212.457L1082.42 210.129L1085.61 207.746L1088.81 205.322L1092 202.873L1098.39 197.957L1101.58 195.521L1104.77 193.119L1107.96 190.767L1111.16 188.479L1114.35 186.269L1117.54 184.151L1120.74 182.138L1123.93 180.241L1127.12 178.474L1130.32 176.846L1133.51 175.368L1136.7 174.049L1139.89 172.897L1143.09 171.919L1146.28 171.121L1149.47 170.508L1152.67 170.084L1155.86 169.852L1159.05 169.813L1162.25 169.966L1165.44 170.312L1168.63 170.848L1171.82 171.571L1175.02 172.476L1178.21 173.558L1181.4 174.809L1184.6 176.224L1187.79 177.791L1190.98 179.503L1194.18 181.348L1197.37 183.315L1200.56 185.392L1203.75 187.566L1206.95 189.824L1210.14 192.152L1213.33 194.535L1216.53 196.959L1219.72 199.408L1226.11 204.324L1229.3 206.76L1232.49 209.162L1235.68 211.514L1238.88 213.802L1242.07 216.012L1245.26 218.13L1248.46 220.143L1251.65 222.04L1254.84 223.807L1258.04 225.435L1261.23 226.913L1264.42 228.232L1267.61 229.384L1270.81 230.362L1274 231.16M0 281.897L3.19298 282.321L6.38596 282.554L9.57895 282.593L12.7719 282.439L15.9649 282.093L19.1579 281.557L22.3509 280.835L25.5439 279.93L28.7368 278.848L31.9298 277.596L35.1228 276.182L38.3158 274.614L41.5088 272.903L44.7018 271.057L47.8947 269.09L51.0877 267.013L54.2807 264.839L57.4737 262.581L60.6667 260.254L63.8596 257.871L67.0526 255.447L70.2456 252.997L76.6316 248.081L79.8246 245.645L83.0175 243.244L86.2105 240.892L89.4035 238.604L92.5965 236.394L95.7895 234.276L98.9825 232.262L102.175 230.366L105.368 228.598L108.561 226.97L111.754 225.492L114.947 224.173L118.14 223.021L121.333 222.043L124.526 221.246L127.719 220.633L130.912 220.209L134.105 219.977L137.298 219.937L140.491 220.091L143.684 220.437L146.877 220.973L150.07 221.695L153.263 222.6L156.456 223.682L159.649 224.934L162.842 226.348L166.035 227.916L169.228 229.628L172.421 231.473L175.614 233.44L178.807 235.517L182 237.691L185.193 239.949L188.386 242.277L191.579 244.66L194.772 247.083L197.965 249.533L204.351 254.449L207.544 256.885L210.737 259.286L213.93 261.638L217.123 263.926L220.316 266.136L223.509 268.255L226.702 270.268L229.895 272.164L233.088 273.932L236.281 275.56L239.474 277.038L242.667 278.357L245.86 279.509L249.053 280.487L252.246 281.285L255.439 281.897L258.632 282.321L261.825 282.554L265.018 282.593L268.211 282.439L271.403 282.093L274.596 281.557L277.789 280.835L280.982 279.93L284.175 278.848L287.368 277.596L290.561 276.182L293.754 274.614L296.947 272.903L300.14 271.057L303.333 269.09L306.526 267.013L309.719 264.839L312.912 262.581L316.105 260.254L319.298 257.871L322.491 255.447L325.684 252.997L332.07 248.081L335.263 245.645L338.456 243.244L341.649 240.892L344.842 238.604L348.035 236.394L351.228 234.276L354.421 232.262L357.614 230.366L360.807 228.598L364 226.97L367.193 225.492L370.386 224.173L373.579 223.021L376.772 222.043L379.965 221.246L383.158 220.633L386.351 220.209L389.544 219.977L392.737 219.937L395.93 220.091L399.123 220.437L402.316 220.973L405.509 221.695L408.702 222.6L411.895 223.682L415.088 224.934L418.281 226.348L421.474 227.916L424.667 229.628L427.86 231.473L431.053 233.44L434.246 235.517L437.439 237.691L440.632 239.949L443.825 242.277L447.018 244.66L450.211 247.083L453.403 249.533L459.789 254.449L462.982 256.885L466.175 259.286L469.368 261.638L472.561 263.926L475.754 266.136L478.947 268.255L482.14 270.268L485.333 272.164L488.526 273.932L491.719 275.56L494.912 277.038L498.105 278.357L501.298 279.509L504.491 280.487L507.684 281.285L510.877 281.897L514.07 282.321L517.263 282.554L520.456 282.593L523.649 282.439L526.842 282.093L530.035 281.557L533.228 280.835L536.421 279.93L539.614 278.848L542.807 277.596L546 276.182L549.193 274.614L552.386 272.903L555.579 271.057L558.772 269.09L561.965 267.013L565.158 264.839L568.351 262.581L571.544 260.254L574.737 257.871L577.93 255.447L581.123 252.997L587.509 248.081L590.702 245.645L593.895 243.244L597.088 240.892L600.281 238.604L603.474 236.394L606.667 234.276L609.86 232.262L613.053 230.366L616.246 228.598L619.439 226.97L622.632 225.492L625.825 224.173L629.018 223.021L632.211 222.043L635.403 221.246L638.596 220.633L641.789 220.209L644.982 219.977L648.175 219.937L651.368 220.091L654.561 220.437L657.754 220.973L660.947 221.695L664.14 222.6L667.333 223.682L670.526 224.934L673.719 226.348L676.912 227.916L680.105 229.628L683.298 231.473L686.491 233.44L689.684 235.517L692.877 237.691L696.07 239.949L699.263 242.277L702.456 244.66L705.649 247.083L708.842 249.533L715.228 254.449L718.421 256.885L721.614 259.286L724.807 261.638L728 263.926L731.193 266.136L734.386 268.255L737.579 270.268L740.772 272.164L743.965 273.932L747.158 275.56L750.351 277.038L753.544 278.357L756.737 279.509L759.93 280.487L763.123 281.285L766.316 281.897L769.509 282.321L772.702 282.554L775.895 282.593L779.088 282.439L782.281 282.093L785.474 281.557L788.667 280.835L791.86 279.93L795.053 278.848L798.246 277.596L801.439 276.182L804.632 274.614L807.825 272.903L811.017 271.057L814.211 269.09L817.403 267.013L820.596 264.839L823.789 262.581L826.982 260.254L830.175 257.871L833.368 255.447L836.561 252.997L842.947 248.081L846.14 245.645L849.333 243.244L852.526 240.892L855.719 238.604L858.912 236.394L862.105 234.276L865.298 232.262L868.491 230.366L871.684 228.598L874.877 226.97L878.07 225.492L881.263 224.173L884.456 223.021L887.649 222.043L890.842 221.246L894.035 220.633L897.228 220.209L900.421 219.977L903.614 219.937L906.807 220.091L910 220.437L913.193 220.973L916.386 221.695L919.579 222.6L922.772 223.682L925.965 224.934L929.158 226.348L932.351 227.916L935.544 229.628L938.737 231.473L941.93 233.44L945.123 235.517L948.316 237.691L951.509 239.949L954.702 242.277L957.895 244.66L961.088 247.083L964.281 249.533L970.667 254.449L973.86 256.885L977.053 259.286L980.246 261.638L983.439 263.926L986.631 266.136L989.825 268.255L993.017 270.268L996.21 272.164L999.403 273.932L1002.6 275.56L1005.79 277.038L1008.98 278.357L1012.18 279.509L1015.37 280.487L1018.56 281.285L1021.75 281.897L1024.95 282.321L1028.14 282.554L1031.33 282.593L1034.53 282.439L1037.72 282.093L1040.91 281.557L1044.11 280.835L1047.3 279.93L1050.49 278.848L1053.68 277.596L1056.88 276.182L1060.07 274.614L1063.26 272.903L1066.46 271.057L1069.65 269.09L1072.84 267.013L1076.03 264.839L1079.23 262.581L1082.42 260.254L1085.61 257.871L1088.81 255.447L1092 252.997L1098.39 248.081L1101.58 245.645L1104.77 243.244L1107.96 240.892L1111.16 238.604L1114.35 236.394L1117.54 234.276L1120.74 232.262L1123.93 230.366L1127.12 228.598L1130.32 226.97L1133.51 225.492L1136.7 224.173L1139.89 223.021L1143.09 222.043L1146.28 221.246L1149.47 220.633L1152.67 220.209L1155.86 219.977L1159.05 219.937L1162.25 220.091L1165.44 220.437L1168.63 220.973L1171.82 221.695L1175.02 222.6L1178.21 223.682L1181.4 224.934L1184.6 226.348L1187.79 227.916L1190.98 229.628L1194.18 231.473L1197.37 233.44L1200.56 235.517L1203.75 237.691L1206.95 239.949L1210.14 242.277L1213.33 244.66L1216.53 247.083L1219.72 249.533L1226.11 254.449L1229.3 256.885L1232.49 259.286L1235.68 261.638L1238.88 263.926L1242.07 266.136L1245.26 268.255L1248.46 270.268L1251.65 272.164L1254.84 273.932L1258.04 275.56L1261.23 277.038L1264.42 278.357L1267.61 279.509L1270.81 280.487L1274 281.285" stroke="url(#paint0_linear_5_379)" stroke-width="7" stroke-miterlimit="10" stroke-linecap="round" stroke-linejoin="round"/>
<defs>
<linearGradient id="paint0_linear_5_379" x1="499.719" y1="-158.139" x2="637.246" y2="282.516" gradientUnits="userSpaceOnUse">
<stop stop-color="white" stop-opacity="0.13"/>
<stop offset="1" stop-color="white" stop-opacity="0"/>
</linearGradient>
</defs>
</svg>
