<svg width="1920" height="783" viewBox="0 0 1920 783" fill="none" xmlns="http://www.w3.org/2000/svg">
<path d="M-439 135.945L-431.987 136.875L-424.975 137.385L-417.962 137.472L-410.95 137.134L-403.937 136.375L-396.925 135.2L-389.912 133.614L-382.9 131.628L-375.887 129.255L-368.875 126.508L-361.862 123.405L-354.85 119.966L-347.837 116.21L-340.825 112.162L-333.812 107.846L-326.8 103.288L-319.787 98.5182L-312.774 93.5643L-305.762 88.4574L-298.749 83.2289L-291.737 77.911L-284.724 72.5366L-270.699 61.7507L-263.687 56.4058L-256.674 51.1368L-249.662 45.9764L-242.649 40.9562L-235.637 36.1074L-228.624 31.4597L-221.612 27.0419L-214.599 22.8811L-207.586 19.003L-200.574 15.4315L-193.561 12.1886L-186.549 9.29444L-179.536 6.76672L-172.524 4.62103L-165.511 2.87065L-158.499 1.52635L-151.486 0.596418L-144.474 0.0866038L-137.461 0L-130.449 0.337209L-123.436 1.09608L-116.424 2.272L-109.411 3.8577L-102.399 5.84337L-95.386 8.2168L-88.3735 10.9634L-81.3609 14.0661L-74.3484 17.5059L-67.3359 21.2615L-60.3233 25.3099L-53.3108 29.6259L-46.2983 34.1832L-39.2857 38.9534L-32.2732 43.9072L-25.2607 49.0142L-18.2482 54.2426L-11.2356 59.5605L-4.22307 64.935L9.80199 75.7208L16.8145 81.0658L23.827 86.3347L30.8396 91.4952L37.8521 96.5153L44.8646 101.364L51.8772 106.012L58.8897 110.43L65.9022 114.59L72.9148 118.469L79.9273 122.04L86.9398 125.283L93.9523 128.177L100.965 130.705L107.977 132.851L114.99 134.601L122.002 135.945L129.015 136.875L136.028 137.385L143.04 137.472L150.053 137.134L157.065 136.375L164.078 135.2L171.09 133.614L178.103 131.628L185.115 129.255L192.128 126.508L199.14 123.405L206.153 119.966L213.165 116.21L220.178 112.162L227.19 107.846L234.203 103.288L241.216 98.5182L248.228 93.5643L255.241 88.4574L262.253 83.2289L269.266 77.911L276.278 72.5366L290.303 61.7507L297.316 56.4058L304.328 51.1368L311.341 45.9764L318.353 40.9562L325.366 36.1074L332.378 31.4597L339.391 27.0419L346.403 22.8811L353.416 19.003L360.429 15.4315L367.441 12.1886L374.454 9.29444L381.466 6.76672L388.479 4.62103L395.491 2.87065L402.504 1.52635L409.516 0.596418L416.529 0.0866038L423.541 0L430.554 0.337209L437.566 1.09608L444.579 2.272L451.591 3.8577L458.604 5.84337L465.616 8.2168L472.629 10.9634L479.642 14.0661L486.654 17.5059L493.667 21.2615L500.679 25.3099L507.692 29.6259L514.704 34.1832L521.717 38.9534L528.729 43.9072L535.742 49.0142L542.754 54.2426L549.767 59.5605L556.779 64.935L570.804 75.7208L577.817 81.0658L584.83 86.3347L591.842 91.4952L598.855 96.5153L605.867 101.364L612.88 106.012L619.892 110.43L626.905 114.59L633.917 118.469L640.93 122.04L647.942 125.283L654.955 128.177L661.967 130.705L668.98 132.851L675.992 134.601L683.005 135.945L690.017 136.875L697.03 137.385L704.043 137.472L711.055 137.134L718.068 136.375L725.08 135.2L732.093 133.614L739.105 131.628L746.118 129.255L753.13 126.508L760.143 123.405L767.155 119.966L774.168 116.21L781.18 112.162L788.193 107.846L795.205 103.288L802.218 98.5182L809.23 93.5643L816.243 88.4574L823.256 83.2289L830.268 77.911L837.281 72.5366L851.306 61.7507L858.318 56.4058L865.331 51.1368L872.343 45.9764L879.356 40.9562L886.368 36.1074L893.381 31.4597L900.393 27.0419L907.406 22.8811L914.418 19.003L921.431 15.4315L928.444 12.1886L935.456 9.29444L942.469 6.76672L949.481 4.62103L956.494 2.87065L963.506 1.52635L970.519 0.596418L977.531 0.0866038L984.544 0L991.556 0.337209L998.569 1.09608L1005.58 2.272L1012.59 3.8577L1019.61 5.84337L1026.62 8.2168L1033.63 10.9634L1040.64 14.0661L1047.66 17.5059L1054.67 21.2615L1061.68 25.3099L1068.69 29.6259L1075.71 34.1832L1082.72 38.9534L1089.73 43.9072L1096.74 49.0142L1103.76 54.2426L1110.77 59.5605L1117.78 64.935L1131.81 75.7208L1138.82 81.0658L1145.83 86.3347L1152.84 91.4952L1159.86 96.5153L1166.87 101.364L1173.88 106.012L1180.89 110.43L1187.91 114.59L1194.92 118.469L1201.93 122.04L1208.94 125.283L1215.96 128.177L1222.97 130.705L1229.98 132.851L1236.99 134.601L1244.01 135.945L1251.02 136.875L1258.03 137.385L1265.05 137.472L1272.06 137.134L1279.07 136.375L1286.08 135.2L1293.1 133.614L1300.11 131.628L1307.12 129.255L1314.13 126.508L1321.15 123.405L1328.16 119.966L1335.17 116.21L1342.18 112.162L1349.2 107.846L1356.21 103.288L1363.22 98.5182L1370.23 93.5643L1377.25 88.4574L1384.26 83.2289L1391.27 77.911L1398.28 72.5366L1412.31 61.7507L1419.32 56.4058L1426.33 51.1368L1433.35 45.9764L1440.36 40.9562L1447.37 36.1074L1454.38 31.4597L1461.4 27.0419L1468.41 22.8811L1475.42 19.003L1482.43 15.4315L1489.45 12.1886L1496.46 9.29444L1503.47 6.76672L1510.48 4.62103L1517.5 2.87065L1524.51 1.52635L1531.52 0.596418L1538.53 0.0866038L1545.55 0L1552.56 0.337209L1559.57 1.09608L1566.58 2.272L1573.6 3.8577L1580.61 5.84337L1587.62 8.2168L1594.63 10.9634L1601.65 14.0661L1608.66 17.5059L1615.67 21.2615L1622.68 25.3099L1629.7 29.6259L1636.71 34.1832L1643.72 38.9534L1650.73 43.9072L1657.75 49.0142L1664.76 54.2426L1671.77 59.5605L1678.78 64.935L1692.81 75.7208L1699.82 81.0658L1706.83 86.3347L1713.85 91.4952L1720.86 96.5153L1727.87 101.364L1734.88 106.012L1741.9 110.43L1748.91 114.59L1755.92 118.469L1762.93 122.04L1769.95 125.283L1776.96 128.177L1783.97 130.705L1790.98 132.851L1798 134.601L1805.01 135.945L1812.02 136.875L1819.03 137.385L1826.05 137.472L1833.06 137.134L1840.07 136.375L1847.09 135.2L1854.1 133.614L1861.11 131.628L1868.12 129.255L1875.14 126.508L1882.15 123.405L1889.16 119.966L1896.17 116.21L1903.19 112.162L1910.2 107.846L1917.21 103.288L1924.22 98.5182L1931.24 93.5643L1938.25 88.4574L1945.26 83.2289L1952.27 77.911L1959.29 72.5366L1973.31 61.7507L1980.32 56.4058L1987.34 51.1368L1994.35 45.9764L2001.36 40.9562L2008.37 36.1074L2015.39 31.4597L2022.4 27.0419L2029.41 22.8811L2036.42 19.003L2043.44 15.4315L2050.45 12.1886L2057.46 9.29444L2064.47 6.76672L2071.49 4.62103L2078.5 2.87065L2085.51 1.52635L2092.52 0.596418L2099.54 0.0866038L2106.55 0L2113.56 0.337209L2120.57 1.09608L2127.59 2.272L2134.6 3.8577L2141.61 5.84337L2148.62 8.2168L2155.64 10.9634L2162.65 14.0661L2169.66 17.5059L2176.67 21.2615L2183.69 25.3099L2190.7 29.6259L2197.71 34.1832L2204.72 38.9534L2211.74 43.9072L2218.75 49.0142L2225.76 54.2426L2232.77 59.5605L2239.79 64.935L2253.81 75.7208L2260.82 81.0658L2267.84 86.3347L2274.85 91.4952L2281.86 96.5153L2288.87 101.364L2295.89 106.012L2302.9 110.43L2309.91 114.59L2316.92 118.469L2323.94 122.04L2330.95 125.283L2337.96 128.177L2344.97 130.705L2351.99 132.851L2359 134.601M-439 245.922L-431.987 246.852L-424.975 247.362L-417.962 247.449L-410.95 247.112L-403.937 246.353L-396.925 245.177L-389.912 243.591L-382.9 241.605L-375.887 239.232L-368.875 236.485L-361.862 233.383L-354.85 229.943L-347.837 226.187L-340.825 222.139L-333.812 217.823L-326.8 213.266L-319.787 208.495L-312.774 203.542L-305.762 198.435L-298.749 193.206L-291.737 187.888L-284.724 182.514L-270.699 171.728L-263.687 166.383L-256.674 161.114L-249.662 155.954L-242.649 150.933L-235.637 146.085L-228.624 141.437L-221.612 137.019L-214.599 132.858L-207.586 128.98L-200.574 125.409L-193.561 122.166L-186.549 119.272L-179.536 116.744L-172.524 114.598L-165.511 112.848L-158.499 111.504L-151.486 110.574L-144.474 110.064L-137.461 109.977L-130.449 110.314L-123.436 111.073L-116.424 112.249L-109.411 113.835L-102.399 115.821L-95.386 118.194L-88.3735 120.941L-81.3609 124.043L-74.3484 127.483L-67.3359 131.239L-60.3233 135.287L-53.3108 139.603L-46.2983 144.16L-39.2857 148.931L-32.2732 153.884L-25.2607 158.991L-18.2482 164.22L-11.2356 169.538L-4.22307 174.912L9.80199 185.698L16.8145 191.043L23.827 196.312L30.8396 201.472L37.8521 206.493L44.8646 211.341L51.8772 215.989L58.8897 220.407L65.9022 224.568L72.9148 228.446L79.9273 232.017L86.9398 235.26L93.9523 238.154L100.965 240.682L107.977 242.828L114.99 244.578L122.002 245.922L129.015 246.852L136.028 247.362L143.04 247.449L150.053 247.112L157.065 246.353L164.078 245.177L171.09 243.591L178.103 241.605L185.115 239.232L192.128 236.485L199.14 233.383L206.153 229.943L213.165 226.187L220.178 222.139L227.19 217.823L234.203 213.266L241.216 208.495L248.228 203.542L255.241 198.435L262.253 193.206L269.266 187.888L276.278 182.514L290.303 171.728L297.316 166.383L304.328 161.114L311.341 155.954L318.353 150.933L325.366 146.085L332.378 141.437L339.391 137.019L346.403 132.858L353.416 128.98L360.429 125.409L367.441 122.166L374.454 119.272L381.466 116.744L388.479 114.598L395.491 112.848L402.504 111.504L409.516 110.574L416.529 110.064L423.541 109.977L430.554 110.314L437.566 111.073L444.579 112.249L451.591 113.835L458.604 115.821L465.616 118.194L472.629 120.941L479.642 124.043L486.654 127.483L493.667 131.239L500.679 135.287L507.692 139.603L514.704 144.16L521.717 148.931L528.729 153.884L535.742 158.991L542.754 164.22L549.767 169.538L556.779 174.912L570.804 185.698L577.817 191.043L584.83 196.312L591.842 201.472L598.855 206.493L605.867 211.341L612.88 215.989L619.892 220.407L626.905 224.568L633.917 228.446L640.93 232.017L647.942 235.26L654.955 238.154L661.967 240.682L668.98 242.828L675.992 244.578L683.005 245.922L690.017 246.852L697.03 247.362L704.043 247.449L711.055 247.112L718.068 246.353L725.08 245.177L732.093 243.591L739.105 241.605L746.118 239.232L753.13 236.485L760.143 233.383L767.155 229.943L774.168 226.187L781.18 222.139L788.193 217.823L795.205 213.266L802.218 208.495L809.23 203.542L816.243 198.435L823.256 193.206L830.268 187.888L837.281 182.514L851.306 171.728L858.318 166.383L865.331 161.114L872.343 155.954L879.356 150.933L886.368 146.085L893.381 141.437L900.393 137.019L907.406 132.858L914.418 128.98L921.431 125.409L928.444 122.166L935.456 119.272L942.469 116.744L949.481 114.598L956.494 112.848L963.506 111.504L970.519 110.574L977.531 110.064L984.544 109.977L991.556 110.314L998.569 111.073L1005.58 112.249L1012.59 113.835L1019.61 115.821L1026.62 118.194L1033.63 120.941L1040.64 124.043L1047.66 127.483L1054.67 131.239L1061.68 135.287L1068.69 139.603L1075.71 144.16L1082.72 148.931L1089.73 153.884L1096.74 158.991L1103.76 164.22L1110.77 169.538L1117.78 174.912L1131.81 185.698L1138.82 191.043L1145.83 196.312L1152.84 201.472L1159.86 206.493L1166.87 211.341L1173.88 215.989L1180.89 220.407L1187.91 224.568L1194.92 228.446L1201.93 232.017L1208.94 235.26L1215.96 238.154L1222.97 240.682L1229.98 242.828L1236.99 244.578L1244.01 245.922L1251.02 246.852L1258.03 247.362L1265.05 247.449L1272.06 247.112L1279.07 246.353L1286.08 245.177L1293.1 243.591L1300.11 241.605L1307.12 239.232L1314.13 236.485L1321.15 233.383L1328.16 229.943L1335.17 226.187L1342.18 222.139L1349.2 217.823L1356.21 213.266L1363.22 208.495L1370.23 203.542L1377.25 198.435L1384.26 193.206L1391.27 187.888L1398.28 182.514L1412.31 171.728L1419.32 166.383L1426.33 161.114L1433.35 155.954L1440.36 150.933L1447.37 146.085L1454.38 141.437L1461.4 137.019L1468.41 132.858L1475.42 128.98L1482.43 125.409L1489.45 122.166L1496.46 119.272L1503.47 116.744L1510.48 114.598L1517.5 112.848L1524.51 111.504L1531.52 110.574L1538.53 110.064L1545.55 109.977L1552.56 110.314L1559.57 111.073L1566.58 112.249L1573.6 113.835L1580.61 115.821L1587.62 118.194L1594.63 120.941L1601.65 124.043L1608.66 127.483L1615.67 131.239L1622.68 135.287L1629.7 139.603L1636.71 144.16L1643.72 148.931L1650.73 153.884L1657.75 158.991L1664.76 164.22L1671.77 169.538L1678.78 174.912L1692.81 185.698L1699.82 191.043L1706.83 196.312L1713.85 201.472L1720.86 206.493L1727.87 211.341L1734.88 215.989L1741.9 220.407L1748.91 224.568L1755.92 228.446L1762.93 232.017L1769.95 235.26L1776.96 238.154L1783.97 240.682L1790.98 242.828L1798 244.578L1805.01 245.922L1812.02 246.852L1819.03 247.362L1826.05 247.449L1833.06 247.112L1840.07 246.353L1847.09 245.177L1854.1 243.591L1861.11 241.605L1868.12 239.232L1875.14 236.485L1882.15 233.383L1889.16 229.943L1896.17 226.187L1903.19 222.139L1910.2 217.823L1917.21 213.266L1924.22 208.495L1931.24 203.542L1938.25 198.435L1945.26 193.206L1952.27 187.888L1959.29 182.514L1973.31 171.728L1980.32 166.383L1987.34 161.114L1994.35 155.954L2001.36 150.933L2008.37 146.085L2015.39 141.437L2022.4 137.019L2029.41 132.858L2036.42 128.98L2043.44 125.409L2050.45 122.166L2057.46 119.272L2064.47 116.744L2071.49 114.598L2078.5 112.848L2085.51 111.504L2092.52 110.574L2099.54 110.064L2106.55 109.977L2113.56 110.314L2120.57 111.073L2127.59 112.249L2134.6 113.835L2141.61 115.821L2148.62 118.194L2155.64 120.941L2162.65 124.043L2169.66 127.483L2176.67 131.239L2183.69 135.287L2190.7 139.603L2197.71 144.16L2204.72 148.931L2211.74 153.884L2218.75 158.991L2225.76 164.22L2232.77 169.538L2239.79 174.912L2253.81 185.698L2260.82 191.043L2267.84 196.312L2274.85 201.472L2281.86 206.493L2288.87 211.341L2295.89 215.989L2302.9 220.407L2309.91 224.568L2316.92 228.446L2323.94 232.017L2330.95 235.26L2337.96 238.154L2344.97 240.682L2351.99 242.828L2359 244.578M-439 355.9L-431.987 356.83L-424.975 357.339L-417.962 357.426L-410.95 357.089L-403.937 356.33L-396.925 355.154L-389.912 353.568L-382.9 351.583L-375.887 349.209L-368.875 346.463L-361.862 343.36L-354.85 339.92L-347.837 336.165L-340.825 332.116L-333.812 327.8L-326.8 323.243L-319.787 318.473L-312.774 313.519L-305.762 308.412L-298.749 303.183L-291.737 297.866L-284.724 292.491L-270.699 281.705L-263.687 276.36L-256.674 271.091L-249.662 265.931L-242.649 260.911L-235.637 256.062L-228.624 251.414L-221.612 246.996L-214.599 242.836L-207.586 238.957L-200.574 235.386L-193.561 232.143L-186.549 229.249L-179.536 226.721L-172.524 224.576L-165.511 222.825L-158.499 221.481L-151.486 220.551L-144.474 220.041L-137.461 219.954L-130.449 220.292L-123.436 221.051L-116.424 222.226L-109.411 223.812L-102.399 225.798L-95.386 228.171L-88.3735 230.918L-81.3609 234.021L-74.3484 237.46L-67.3359 241.216L-60.3233 245.264L-53.3108 249.58L-46.2983 254.138L-39.2857 258.908L-32.2732 263.862L-25.2607 268.969L-18.2482 274.197L-11.2356 279.515L-4.22307 284.889L9.80199 295.675L16.8145 301.02L23.827 306.289L30.8396 311.45L37.8521 316.47L44.8646 321.319L51.8772 325.966L58.8897 330.384L65.9022 334.545L72.9148 338.423L79.9273 341.995L86.9398 345.237L93.9523 348.132L100.965 350.659L107.977 352.805L114.99 354.555L122.002 355.9L129.015 356.83L136.028 357.339L143.04 357.426L150.053 357.089L157.065 356.33L164.078 355.154L171.09 353.568L178.103 351.583L185.115 349.209L192.128 346.463L199.14 343.36L206.153 339.92L213.165 336.165L220.178 332.116L227.19 327.8L234.203 323.243L241.216 318.473L248.228 313.519L255.241 308.412L262.253 303.183L269.266 297.866L276.278 292.491L290.303 281.705L297.316 276.36L304.328 271.091L311.341 265.931L318.353 260.911L325.366 256.062L332.378 251.414L339.391 246.996L346.403 242.836L353.416 238.957L360.429 235.386L367.441 232.143L374.454 229.249L381.466 226.721L388.479 224.576L395.491 222.825L402.504 221.481L409.516 220.551L416.529 220.041L423.541 219.954L430.554 220.292L437.566 221.051L444.579 222.226L451.591 223.812L458.604 225.798L465.616 228.171L472.629 230.918L479.642 234.021L486.654 237.46L493.667 241.216L500.679 245.264L507.692 249.58L514.704 254.138L521.717 258.908L528.729 263.862L535.742 268.969L542.754 274.197L549.767 279.515L556.779 284.889L570.804 295.675L577.817 301.02L584.83 306.289L591.842 311.45L598.855 316.47L605.867 321.319L612.88 325.966L619.892 330.384L626.905 334.545L633.917 338.423L640.93 341.995L647.942 345.237L654.955 348.132L661.967 350.659L668.98 352.805L675.992 354.555L683.005 355.9L690.017 356.83L697.03 357.339L704.043 357.426L711.055 357.089L718.068 356.33L725.08 355.154L732.093 353.568L739.105 351.583L746.118 349.209L753.13 346.463L760.143 343.36L767.155 339.92L774.168 336.165L781.18 332.116L788.193 327.8L795.205 323.243L802.218 318.473L809.23 313.519L816.243 308.412L823.256 303.183L830.268 297.866L837.281 292.491L851.306 281.705L858.318 276.36L865.331 271.091L872.343 265.931L879.356 260.911L886.368 256.062L893.381 251.414L900.393 246.996L907.406 242.836L914.418 238.957L921.431 235.386L928.444 232.143L935.456 229.249L942.469 226.721L949.481 224.576L956.494 222.825L963.506 221.481L970.519 220.551L977.531 220.041L984.544 219.954L991.556 220.292L998.569 221.051L1005.58 222.226L1012.59 223.812L1019.61 225.798L1026.62 228.171L1033.63 230.918L1040.64 234.021L1047.66 237.46L1054.67 241.216L1061.68 245.264L1068.69 249.58L1075.71 254.138L1082.72 258.908L1089.73 263.862L1096.74 268.969L1103.76 274.197L1110.77 279.515L1117.78 284.889L1131.81 295.675L1138.82 301.02L1145.83 306.289L1152.84 311.45L1159.86 316.47L1166.87 321.319L1173.88 325.966L1180.89 330.384L1187.91 334.545L1194.92 338.423L1201.93 341.995L1208.94 345.237L1215.96 348.132L1222.97 350.659L1229.98 352.805L1236.99 354.555L1244.01 355.9L1251.02 356.83L1258.03 357.339L1265.05 357.426L1272.06 357.089L1279.07 356.33L1286.08 355.154L1293.1 353.568L1300.11 351.583L1307.12 349.209L1314.13 346.463L1321.15 343.36L1328.16 339.92L1335.17 336.165L1342.18 332.116L1349.2 327.8L1356.21 323.243L1363.22 318.473L1370.23 313.519L1377.25 308.412L1384.26 303.183L1391.27 297.866L1398.28 292.491L1412.31 281.705L1419.32 276.36L1426.33 271.091L1433.35 265.931L1440.36 260.911L1447.37 256.062L1454.38 251.414L1461.4 246.996L1468.41 242.836L1475.42 238.957L1482.43 235.386L1489.45 232.143L1496.46 229.249L1503.47 226.721L1510.48 224.576L1517.5 222.825L1524.51 221.481L1531.52 220.551L1538.53 220.041L1545.55 219.954L1552.56 220.292L1559.57 221.051L1566.58 222.226L1573.6 223.812L1580.61 225.798L1587.62 228.171L1594.63 230.918L1601.65 234.021L1608.66 237.46L1615.67 241.216L1622.68 245.264L1629.7 249.58L1636.71 254.138L1643.72 258.908L1650.73 263.862L1657.75 268.969L1664.76 274.197L1671.77 279.515L1678.78 284.889L1692.81 295.675L1699.82 301.02L1706.83 306.289L1713.85 311.45L1720.86 316.47L1727.87 321.319L1734.88 325.966L1741.9 330.384L1748.91 334.545L1755.92 338.423L1762.93 341.995L1769.95 345.237L1776.96 348.132L1783.97 350.659L1790.98 352.805L1798 354.555L1805.01 355.9L1812.02 356.83L1819.03 357.339L1826.05 357.426L1833.06 357.089L1840.07 356.33L1847.09 355.154L1854.1 353.568L1861.11 351.583L1868.12 349.209L1875.14 346.463L1882.15 343.36L1889.16 339.92L1896.17 336.165L1903.19 332.116L1910.2 327.8L1917.21 323.243L1924.22 318.473L1931.24 313.519L1938.25 308.412L1945.26 303.183L1952.27 297.866L1959.29 292.491L1973.31 281.705L1980.32 276.36L1987.34 271.091L1994.35 265.931L2001.36 260.911L2008.37 256.062L2015.39 251.414L2022.4 246.996L2029.41 242.836L2036.42 238.957L2043.44 235.386L2050.45 232.143L2057.46 229.249L2064.47 226.721L2071.49 224.576L2078.5 222.825L2085.51 221.481L2092.52 220.551L2099.54 220.041L2106.55 219.954L2113.56 220.292L2120.57 221.051L2127.59 222.226L2134.6 223.812L2141.61 225.798L2148.62 228.171L2155.64 230.918L2162.65 234.021L2169.66 237.46L2176.67 241.216L2183.69 245.264L2190.7 249.58L2197.71 254.138L2204.72 258.908L2211.74 263.862L2218.75 268.969L2225.76 274.197L2232.77 279.515L2239.79 284.889L2253.81 295.675L2260.82 301.02L2267.84 306.289L2274.85 311.45L2281.86 316.47L2288.87 321.319L2295.89 325.966L2302.9 330.384L2309.91 334.545L2316.92 338.423L2323.94 341.995L2330.95 345.237L2337.96 348.132L2344.97 350.659L2351.99 352.805L2359 354.555M-439 465.877L-431.987 466.807L-424.975 467.317L-417.962 467.403L-410.95 467.066L-403.937 466.307L-396.925 465.131L-389.912 463.546L-382.9 461.56L-375.887 459.187L-368.875 456.44L-361.862 453.337L-354.85 449.897L-347.837 446.142L-340.825 442.093L-333.812 437.777L-326.8 433.22L-319.787 428.45L-312.774 423.496L-305.762 418.389L-298.749 413.161L-291.737 407.843L-284.724 402.468L-270.699 391.682L-263.687 386.338L-256.674 381.069L-249.662 375.908L-242.649 370.888L-235.637 366.039L-228.624 361.391L-221.612 356.974L-214.599 352.813L-207.586 348.935L-200.574 345.363L-193.561 342.12L-186.549 339.226L-179.536 336.698L-172.524 334.553L-165.511 332.802L-158.499 331.458L-151.486 330.528L-144.474 330.018L-137.461 329.932L-130.449 330.269L-123.436 331.028L-116.424 332.204L-109.411 333.789L-102.399 335.775L-95.386 338.149L-88.3735 340.895L-81.3609 343.998L-74.3484 347.438L-67.3359 351.193L-60.3233 355.242L-53.3108 359.558L-46.2983 364.115L-39.2857 368.885L-32.2732 373.839L-25.2607 378.946L-18.2482 384.174L-11.2356 389.492L-4.22307 394.867L9.80199 405.653L16.8145 410.998L23.827 416.266L30.8396 421.427L37.8521 426.447L44.8646 431.296L51.8772 435.944L58.8897 440.361L65.9022 444.522L72.9148 448.4L79.9273 451.972L86.9398 455.215L93.9523 458.109L100.965 460.637L107.977 462.782L114.99 464.533L122.002 465.877L129.015 466.807L136.028 467.317L143.04 467.403L150.053 467.066L157.065 466.307L164.078 465.131L171.09 463.546L178.103 461.56L185.115 459.187L192.128 456.44L199.14 453.337L206.153 449.897L213.165 446.142L220.178 442.093L227.19 437.777L234.203 433.22L241.216 428.45L248.228 423.496L255.241 418.389L262.253 413.161L269.266 407.843L276.278 402.468L290.303 391.682L297.316 386.338L304.328 381.069L311.341 375.908L318.353 370.888L325.366 366.039L332.378 361.391L339.391 356.974L346.403 352.813L353.416 348.935L360.429 345.363L367.441 342.12L374.454 339.226L381.466 336.698L388.479 334.553L395.491 332.802L402.504 331.458L409.516 330.528L416.529 330.018L423.541 329.932L430.554 330.269L437.566 331.028L444.579 332.204L451.591 333.789L458.604 335.775L465.616 338.149L472.629 340.895L479.642 343.998L486.654 347.438L493.667 351.193L500.679 355.242L507.692 359.558L514.704 364.115L521.717 368.885L528.729 373.839L535.742 378.946L542.754 384.174L549.767 389.492L556.779 394.867L570.804 405.653L577.817 410.998L584.83 416.266L591.842 421.427L598.855 426.447L605.867 431.296L612.88 435.944L619.892 440.361L626.905 444.522L633.917 448.4L640.93 451.972L647.942 455.215L654.955 458.109L661.967 460.637L668.98 462.782L675.992 464.533L683.005 465.877L690.017 466.807L697.03 467.317L704.043 467.403L711.055 467.066L718.068 466.307L725.08 465.131L732.093 463.546L739.105 461.56L746.118 459.187L753.13 456.44L760.143 453.337L767.155 449.897L774.168 446.142L781.18 442.093L788.193 437.777L795.205 433.22L802.218 428.45L809.23 423.496L816.243 418.389L823.256 413.161L830.268 407.843L837.281 402.468L851.306 391.682L858.318 386.338L865.331 381.069L872.343 375.908L879.356 370.888L886.368 366.039L893.381 361.391L900.393 356.974L907.406 352.813L914.418 348.935L921.431 345.363L928.444 342.12L935.456 339.226L942.469 336.698L949.481 334.553L956.494 332.802L963.506 331.458L970.519 330.528L977.531 330.018L984.544 329.932L991.556 330.269L998.569 331.028L1005.58 332.204L1012.59 333.789L1019.61 335.775L1026.62 338.149L1033.63 340.895L1040.64 343.998L1047.66 347.438L1054.67 351.193L1061.68 355.242L1068.69 359.558L1075.71 364.115L1082.72 368.885L1089.73 373.839L1096.74 378.946L1103.76 384.174L1110.77 389.492L1117.78 394.867L1131.81 405.653L1138.82 410.998L1145.83 416.266L1152.84 421.427L1159.86 426.447L1166.87 431.296L1173.88 435.944L1180.89 440.361L1187.91 444.522L1194.92 448.4L1201.93 451.972L1208.94 455.215L1215.96 458.109L1222.97 460.637L1229.98 462.782L1236.99 464.533L1244.01 465.877L1251.02 466.807L1258.03 467.317L1265.05 467.403L1272.06 467.066L1279.07 466.307L1286.08 465.131L1293.1 463.546L1300.11 461.56L1307.12 459.187L1314.13 456.44L1321.15 453.337L1328.16 449.897L1335.17 446.142L1342.18 442.093L1349.2 437.777L1356.21 433.22L1363.22 428.45L1370.23 423.496L1377.25 418.389L1384.26 413.161L1391.27 407.843L1398.28 402.468L1412.31 391.682L1419.32 386.338L1426.33 381.069L1433.35 375.908L1440.36 370.888L1447.37 366.039L1454.38 361.391L1461.4 356.974L1468.41 352.813L1475.42 348.935L1482.43 345.363L1489.45 342.12L1496.46 339.226L1503.47 336.698L1510.48 334.553L1517.5 332.802L1524.51 331.458L1531.52 330.528L1538.53 330.018L1545.55 329.932L1552.56 330.269L1559.57 331.028L1566.58 332.204L1573.6 333.789L1580.61 335.775L1587.62 338.149L1594.63 340.895L1601.65 343.998L1608.66 347.438L1615.67 351.193L1622.68 355.242L1629.7 359.558L1636.71 364.115L1643.72 368.885L1650.73 373.839L1657.75 378.946L1664.76 384.174L1671.77 389.492L1678.78 394.867L1692.81 405.653L1699.82 410.998L1706.83 416.266L1713.85 421.427L1720.86 426.447L1727.87 431.296L1734.88 435.944L1741.9 440.361L1748.91 444.522L1755.92 448.4L1762.93 451.972L1769.95 455.215L1776.96 458.109L1783.97 460.637L1790.98 462.782L1798 464.533L1805.01 465.877L1812.02 466.807L1819.03 467.317L1826.05 467.403L1833.06 467.066L1840.07 466.307L1847.09 465.131L1854.1 463.546L1861.11 461.56L1868.12 459.187L1875.14 456.44L1882.15 453.337L1889.16 449.897L1896.17 446.142L1903.19 442.093L1910.2 437.777L1917.21 433.22L1924.22 428.45L1931.24 423.496L1938.25 418.389L1945.26 413.161L1952.27 407.843L1959.29 402.468L1973.31 391.682L1980.32 386.338L1987.34 381.069L1994.35 375.908L2001.36 370.888L2008.37 366.039L2015.39 361.391L2022.4 356.974L2029.41 352.813L2036.42 348.935L2043.44 345.363L2050.45 342.12L2057.46 339.226L2064.47 336.698L2071.49 334.553L2078.5 332.802L2085.51 331.458L2092.52 330.528L2099.54 330.018L2106.55 329.932L2113.56 330.269L2120.57 331.028L2127.59 332.204L2134.6 333.789L2141.61 335.775L2148.62 338.149L2155.64 340.895L2162.65 343.998L2169.66 347.438L2176.67 351.193L2183.69 355.242L2190.7 359.558L2197.71 364.115L2204.72 368.885L2211.74 373.839L2218.75 378.946L2225.76 384.174L2232.77 389.492L2239.79 394.867L2253.81 405.653L2260.82 410.998L2267.84 416.266L2274.85 421.427L2281.86 426.447L2288.87 431.296L2295.89 435.944L2302.9 440.361L2309.91 444.522L2316.92 448.4L2323.94 451.972L2330.95 455.215L2337.96 458.109L2344.97 460.637L2351.99 462.782L2359 464.533M-439 568.542L-431.987 569.472L-424.975 569.982L-417.962 570.068L-410.95 569.731L-403.937 568.972L-396.925 567.796L-389.912 566.211L-382.9 564.225L-375.887 561.851L-368.875 559.105L-361.862 556.002L-354.85 552.562L-347.837 548.807L-340.825 544.758L-333.812 540.442L-326.8 535.885L-319.787 531.115L-312.774 526.161L-305.762 521.054L-298.749 515.826L-291.737 510.508L-284.724 505.133L-270.699 494.347L-263.687 489.002L-256.674 483.733L-249.662 478.573L-242.649 473.553L-235.637 468.704L-228.624 464.056L-221.612 459.639L-214.599 455.478L-207.586 451.6L-200.574 448.028L-193.561 444.785L-186.549 441.891L-179.536 439.363L-172.524 437.218L-165.511 435.467L-158.499 434.123L-151.486 433.193L-144.474 432.683L-137.461 432.597L-130.449 432.934L-123.436 433.693L-116.424 434.869L-109.411 436.454L-102.399 438.44L-95.386 440.813L-88.3735 443.56L-81.3609 446.663L-74.3484 450.103L-67.3359 453.858L-60.3233 457.907L-53.3108 462.223L-46.2983 466.78L-39.2857 471.55L-32.2732 476.504L-25.2607 481.611L-18.2482 486.839L-11.2356 492.157L-4.22307 497.532L9.80199 508.318L16.8145 513.662L23.827 518.931L30.8396 524.092L37.8521 529.112L44.8646 533.961L51.8772 538.608L58.8897 543.026L65.9022 547.187L72.9148 551.065L79.9273 554.637L86.9398 557.88L93.9523 560.774L100.965 563.302L107.977 565.447L114.99 567.198L122.002 568.542L129.015 569.472L136.028 569.982L143.04 570.068L150.053 569.731L157.065 568.972L164.078 567.796L171.09 566.211L178.103 564.225L185.115 561.851L192.128 559.105L199.14 556.002L206.153 552.562L213.165 548.807L220.178 544.758L227.19 540.442L234.203 535.885L241.216 531.115L248.228 526.161L255.241 521.054L262.253 515.826L269.266 510.508L276.278 505.133L290.303 494.347L297.316 489.002L304.328 483.733L311.341 478.573L318.353 473.553L325.366 468.704L332.378 464.056L339.391 459.639L346.403 455.478L353.416 451.6L360.429 448.028L367.441 444.785L374.454 441.891L381.466 439.363L388.479 437.218L395.491 435.467L402.504 434.123L409.516 433.193L416.529 432.683L423.541 432.597L430.554 432.934L437.566 433.693L444.579 434.869L451.591 436.454L458.604 438.44L465.616 440.813L472.629 443.56L479.642 446.663L486.654 450.103L493.667 453.858L500.679 457.907L507.692 462.223L514.704 466.78L521.717 471.55L528.729 476.504L535.742 481.611L542.754 486.839L549.767 492.157L556.779 497.532L570.804 508.318L577.817 513.662L584.83 518.931L591.842 524.092L598.855 529.112L605.867 533.961L612.88 538.608L619.892 543.026L626.905 547.187L633.917 551.065L640.93 554.637L647.942 557.88L654.955 560.774L661.967 563.302L668.98 565.447L675.992 567.198L683.005 568.542L690.017 569.472L697.03 569.982L704.043 570.068L711.055 569.731L718.068 568.972L725.08 567.796L732.093 566.211L739.105 564.225L746.118 561.851L753.13 559.105L760.143 556.002L767.155 552.562L774.168 548.807L781.18 544.758L788.193 540.442L795.205 535.885L802.218 531.115L809.23 526.161L816.243 521.054L823.256 515.826L830.268 510.508L837.281 505.133L851.306 494.347L858.318 489.002L865.331 483.733L872.343 478.573L879.356 473.553L886.368 468.704L893.381 464.056L900.393 459.639L907.406 455.478L914.418 451.6L921.431 448.028L928.444 444.785L935.456 441.891L942.469 439.363L949.481 437.218L956.494 435.467L963.506 434.123L970.519 433.193L977.531 432.683L984.544 432.597L991.556 432.934L998.569 433.693L1005.58 434.869L1012.59 436.454L1019.61 438.44L1026.62 440.813L1033.63 443.56L1040.64 446.663L1047.66 450.103L1054.67 453.858L1061.68 457.907L1068.69 462.223L1075.71 466.78L1082.72 471.55L1089.73 476.504L1096.74 481.611L1103.76 486.839L1110.77 492.157L1117.78 497.532L1131.81 508.318L1138.82 513.662L1145.83 518.931L1152.84 524.092L1159.86 529.112L1166.87 533.961L1173.88 538.608L1180.89 543.026L1187.91 547.187L1194.92 551.065L1201.93 554.637L1208.94 557.88L1215.96 560.774L1222.97 563.302L1229.98 565.447L1236.99 567.198L1244.01 568.542L1251.02 569.472L1258.03 569.982L1265.05 570.068L1272.06 569.731L1279.07 568.972L1286.08 567.796L1293.1 566.211L1300.11 564.225L1307.12 561.851L1314.13 559.105L1321.15 556.002L1328.16 552.562L1335.17 548.807L1342.18 544.758L1349.2 540.442L1356.21 535.885L1363.22 531.115L1370.23 526.161L1377.25 521.054L1384.26 515.826L1391.27 510.508L1398.28 505.133L1412.31 494.347L1419.32 489.002L1426.33 483.733L1433.35 478.573L1440.36 473.553L1447.37 468.704L1454.38 464.056L1461.4 459.639L1468.41 455.478L1475.42 451.6L1482.43 448.028L1489.45 444.785L1496.46 441.891L1503.47 439.363L1510.48 437.218L1517.5 435.467L1524.51 434.123L1531.52 433.193L1538.53 432.683L1545.55 432.597L1552.56 432.934L1559.57 433.693L1566.58 434.869L1573.6 436.454L1580.61 438.44L1587.62 440.813L1594.63 443.56L1601.65 446.663L1608.66 450.103L1615.67 453.858L1622.68 457.907L1629.7 462.223L1636.71 466.78L1643.72 471.55L1650.73 476.504L1657.75 481.611L1664.76 486.839L1671.77 492.157L1678.78 497.532L1692.81 508.318L1699.82 513.662L1706.83 518.931L1713.85 524.092L1720.86 529.112L1727.87 533.961L1734.88 538.608L1741.9 543.026L1748.91 547.187L1755.92 551.065L1762.93 554.637L1769.95 557.88L1776.96 560.774L1783.97 563.302L1790.98 565.447L1798 567.198L1805.01 568.542L1812.02 569.472L1819.03 569.982L1826.05 570.068L1833.06 569.731L1840.07 568.972L1847.09 567.796L1854.1 566.211L1861.11 564.225L1868.12 561.851L1875.14 559.105L1882.15 556.002L1889.16 552.562L1896.17 548.807L1903.19 544.758L1910.2 540.442L1917.21 535.885L1924.22 531.115L1931.24 526.161L1938.25 521.054L1945.26 515.826L1952.27 510.508L1959.29 505.133L1973.31 494.347L1980.32 489.002L1987.34 483.733L1994.35 478.573L2001.36 473.553L2008.37 468.704L2015.39 464.056L2022.4 459.639L2029.41 455.478L2036.42 451.6L2043.44 448.028L2050.45 444.785L2057.46 441.891L2064.47 439.363L2071.49 437.218L2078.5 435.467L2085.51 434.123L2092.52 433.193L2099.54 432.683L2106.55 432.597L2113.56 432.934L2120.57 433.693L2127.59 434.869L2134.6 436.454L2141.61 438.44L2148.62 440.813L2155.64 443.56L2162.65 446.663L2169.66 450.103L2176.67 453.858L2183.69 457.907L2190.7 462.223L2197.71 466.78L2204.72 471.55L2211.74 476.504L2218.75 481.611L2225.76 486.839L2232.77 492.157L2239.79 497.532L2253.81 508.318L2260.82 513.662L2267.84 518.931L2274.85 524.092L2281.86 529.112L2288.87 533.961L2295.89 538.608L2302.9 543.026L2309.91 547.187L2316.92 551.065L2323.94 554.637L2330.95 557.88L2337.96 560.774L2344.97 563.302L2351.99 565.447L2359 567.198M-439 678.519L-431.987 679.449L-424.975 679.959L-417.962 680.046L-410.95 679.708L-403.937 678.949L-396.925 677.774L-389.912 676.188L-382.9 674.202L-375.887 671.829L-368.875 669.082L-361.862 665.979L-354.85 662.54L-347.837 658.784L-340.825 654.736L-333.812 650.42L-326.8 645.862L-319.787 641.092L-312.774 636.138L-305.762 631.031L-298.749 625.803L-291.737 620.485L-284.724 615.111L-270.699 604.325L-263.687 598.98L-256.674 593.711L-249.662 588.55L-242.649 583.53L-235.637 578.681L-228.624 574.034L-221.612 569.616L-214.599 565.455L-207.586 561.577L-200.574 558.005L-193.561 554.763L-186.549 551.868L-179.536 549.341L-172.524 547.195L-165.511 545.445L-158.499 544.1L-151.486 543.17L-144.474 542.661L-137.461 542.574L-130.449 542.911L-123.436 543.67L-116.424 544.846L-109.411 546.432L-102.399 548.417L-95.386 550.791L-88.3735 553.537L-81.3609 556.64L-74.3484 560.08L-67.3359 563.835L-60.3233 567.884L-53.3108 572.2L-46.2983 576.757L-39.2857 581.527L-32.2732 586.481L-25.2607 591.588L-18.2482 596.817L-11.2356 602.134L-4.22307 607.509L9.80199 618.295L16.8145 623.64L23.827 628.909L30.8396 634.069L37.8521 639.089L44.8646 643.938L51.8772 648.586L58.8897 653.004L65.9022 657.164L72.9148 661.043L79.9273 664.614L86.9398 667.857L93.9523 670.751L100.965 673.279L107.977 675.424L114.99 677.175L122.002 678.519L129.015 679.449L136.028 679.959L143.04 680.046L150.053 679.708L157.065 678.949L164.078 677.774L171.09 676.188L178.103 674.202L185.115 671.829L192.128 669.082L199.14 665.979L206.153 662.54L213.165 658.784L220.178 654.736L227.19 650.42L234.203 645.862L241.216 641.092L248.228 636.138L255.241 631.031L262.253 625.803L269.266 620.485L276.278 615.111L290.303 604.325L297.316 598.98L304.328 593.711L311.341 588.55L318.353 583.53L325.366 578.681L332.378 574.034L339.391 569.616L346.403 565.455L353.416 561.577L360.429 558.005L367.441 554.763L374.454 551.868L381.466 549.341L388.479 547.195L395.491 545.445L402.504 544.1L409.516 543.17L416.529 542.661L423.541 542.574L430.554 542.911L437.566 543.67L444.579 544.846L451.591 546.432L458.604 548.417L465.616 550.791L472.629 553.537L479.642 556.64L486.654 560.08L493.667 563.835L500.679 567.884L507.692 572.2L514.704 576.757L521.717 581.527L528.729 586.481L535.742 591.588L542.754 596.817L549.767 602.134L556.779 607.509L570.804 618.295L577.817 623.64L584.83 628.909L591.842 634.069L598.855 639.089L605.867 643.938L612.88 648.586L619.892 653.004L626.905 657.164L633.917 661.043L640.93 664.614L647.942 667.857L654.955 670.751L661.967 673.279L668.98 675.424L675.992 677.175L683.005 678.519L690.017 679.449L697.03 679.959L704.043 680.046L711.055 679.708L718.068 678.949L725.08 677.774L732.093 676.188L739.105 674.202L746.118 671.829L753.13 669.082L760.143 665.979L767.155 662.54L774.168 658.784L781.18 654.736L788.193 650.42L795.205 645.862L802.218 641.092L809.23 636.138L816.243 631.031L823.256 625.803L830.268 620.485L837.281 615.111L851.306 604.325L858.318 598.98L865.331 593.711L872.343 588.55L879.356 583.53L886.368 578.681L893.381 574.034L900.393 569.616L907.406 565.455L914.418 561.577L921.431 558.005L928.444 554.763L935.456 551.868L942.469 549.341L949.481 547.195L956.494 545.445L963.506 544.1L970.519 543.17L977.531 542.661L984.544 542.574L991.556 542.911L998.569 543.67L1005.58 544.846L1012.59 546.432L1019.61 548.417L1026.62 550.791L1033.63 553.537L1040.64 556.64L1047.66 560.08L1054.67 563.835L1061.68 567.884L1068.69 572.2L1075.71 576.757L1082.72 581.527L1089.73 586.481L1096.74 591.588L1103.76 596.817L1110.77 602.134L1117.78 607.509L1131.81 618.295L1138.82 623.64L1145.83 628.909L1152.84 634.069L1159.86 639.089L1166.87 643.938L1173.88 648.586L1180.89 653.004L1187.91 657.164L1194.92 661.043L1201.93 664.614L1208.94 667.857L1215.96 670.751L1222.97 673.279L1229.98 675.424L1236.99 677.175L1244.01 678.519L1251.02 679.449L1258.03 679.959L1265.05 680.046L1272.06 679.708L1279.07 678.949L1286.08 677.774L1293.1 676.188L1300.11 674.202L1307.12 671.829L1314.13 669.082L1321.15 665.979L1328.16 662.54L1335.17 658.784L1342.18 654.736L1349.2 650.42L1356.21 645.862L1363.22 641.092L1370.23 636.138L1377.25 631.031L1384.26 625.803L1391.27 620.485L1398.28 615.111L1412.31 604.325L1419.32 598.98L1426.33 593.711L1433.35 588.55L1440.36 583.53L1447.37 578.681L1454.38 574.034L1461.4 569.616L1468.41 565.455L1475.42 561.577L1482.43 558.005L1489.45 554.763L1496.46 551.868L1503.47 549.341L1510.48 547.195L1517.5 545.445L1524.51 544.1L1531.52 543.17L1538.53 542.661L1545.55 542.574L1552.56 542.911L1559.57 543.67L1566.58 544.846L1573.6 546.432L1580.61 548.417L1587.62 550.791L1594.63 553.537L1601.65 556.64L1608.66 560.08L1615.67 563.835L1622.68 567.884L1629.7 572.2L1636.71 576.757L1643.72 581.527L1650.73 586.481L1657.75 591.588L1664.76 596.817L1671.77 602.134L1678.78 607.509L1692.81 618.295L1699.82 623.64L1706.83 628.909L1713.85 634.069L1720.86 639.089L1727.87 643.938L1734.88 648.586L1741.9 653.004L1748.91 657.164L1755.92 661.043L1762.93 664.614L1769.95 667.857L1776.96 670.751L1783.97 673.279L1790.98 675.424L1798 677.175L1805.01 678.519L1812.02 679.449L1819.03 679.959L1826.05 680.046L1833.06 679.708L1840.07 678.949L1847.09 677.774L1854.1 676.188L1861.11 674.202L1868.12 671.829L1875.14 669.082L1882.15 665.979L1889.16 662.54L1896.17 658.784L1903.19 654.736L1910.2 650.42L1917.21 645.862L1924.22 641.092L1931.24 636.138L1938.25 631.031L1945.26 625.803L1952.27 620.485L1959.29 615.111L1973.31 604.325L1980.32 598.98L1987.34 593.711L1994.35 588.55L2001.36 583.53L2008.37 578.681L2015.39 574.034L2022.4 569.616L2029.41 565.455L2036.42 561.577L2043.44 558.005L2050.45 554.763L2057.46 551.868L2064.47 549.341L2071.49 547.195L2078.5 545.445L2085.51 544.1L2092.52 543.17L2099.54 542.661L2106.55 542.574L2113.56 542.911L2120.57 543.67L2127.59 544.846L2134.6 546.432L2141.61 548.417L2148.62 550.791L2155.64 553.537L2162.65 556.64L2169.66 560.08L2176.67 563.835L2183.69 567.884L2190.7 572.2L2197.71 576.757L2204.72 581.527L2211.74 586.481L2218.75 591.588L2225.76 596.817L2232.77 602.134L2239.79 607.509L2253.81 618.295L2260.82 623.64L2267.84 628.909L2274.85 634.069L2281.86 639.089L2288.87 643.938L2295.89 648.586L2302.9 653.004L2309.91 657.164L2316.92 661.043L2323.94 664.614L2330.95 667.857L2337.96 670.751L2344.97 673.279L2351.99 675.424L2359 677.175M-439 788.496L-431.987 789.426L-424.975 789.936L-417.962 790.023L-410.95 789.686L-403.937 788.927L-396.925 787.751L-389.912 786.165L-382.9 784.179L-375.887 781.806L-368.875 779.059L-361.862 775.957L-354.85 772.517L-347.837 768.761L-340.825 764.713L-333.812 760.397L-326.8 755.84L-319.787 751.069L-312.774 746.116L-305.762 741.009L-298.749 735.78L-291.737 730.462L-284.724 725.088L-270.699 714.302L-263.687 708.957L-256.674 703.688L-249.662 698.528L-242.649 693.507L-235.637 688.659L-228.624 684.011L-221.612 679.593L-214.599 675.432L-207.586 671.554L-200.574 667.983L-193.561 664.74L-186.549 661.846L-179.536 659.318L-172.524 657.172L-165.511 655.422L-158.499 654.078L-151.486 653.148L-144.474 652.638L-137.461 652.551L-130.449 652.888L-123.436 653.647L-116.424 654.823L-109.411 656.409L-102.399 658.395L-95.386 660.768L-88.3735 663.515L-81.3609 666.617L-74.3484 670.057L-67.3359 673.813L-60.3233 677.861L-53.3108 682.177L-46.2983 686.734L-39.2857 691.505L-32.2732 696.458L-25.2607 701.565L-18.2482 706.794L-11.2356 712.112L-4.22307 717.486L9.80199 728.272L16.8145 733.617L23.827 738.886L30.8396 744.046L37.8521 749.066L44.8646 753.915L51.8772 758.563L58.8897 762.981L65.9022 767.142L72.9148 771.02L79.9273 774.591L86.9398 777.834L93.9523 780.728L100.965 783.256L107.977 785.402L114.99 787.152L122.002 788.496L129.015 789.426L136.028 789.936L143.04 790.023L150.053 789.686L157.065 788.927L164.078 787.751L171.09 786.165L178.103 784.179L185.115 781.806L192.128 779.059L199.14 775.957L206.153 772.517L213.165 768.761L220.178 764.713L227.19 760.397L234.203 755.84L241.216 751.069L248.228 746.116L255.241 741.009L262.253 735.78L269.266 730.462L276.278 725.088L290.303 714.302L297.316 708.957L304.328 703.688L311.341 698.528L318.353 693.507L325.366 688.659L332.378 684.011L339.391 679.593L346.403 675.432L353.416 671.554L360.429 667.983L367.441 664.74L374.454 661.846L381.466 659.318L388.479 657.172L395.491 655.422L402.504 654.078L409.516 653.148L416.529 652.638L423.541 652.551L430.554 652.888L437.566 653.647L444.579 654.823L451.591 656.409L458.604 658.395L465.616 660.768L472.629 663.515L479.642 666.617L486.654 670.057L493.667 673.813L500.679 677.861L507.692 682.177L514.704 686.734L521.717 691.505L528.729 696.458L535.742 701.565L542.754 706.794L549.767 712.112L556.779 717.486L570.804 728.272L577.817 733.617L584.83 738.886L591.842 744.046L598.855 749.066L605.867 753.915L612.88 758.563L619.892 762.981L626.905 767.142L633.917 771.02L640.93 774.591L647.942 777.834L654.955 780.728L661.967 783.256L668.98 785.402L675.992 787.152L683.005 788.496L690.017 789.426L697.03 789.936L704.043 790.023L711.055 789.686L718.068 788.927L725.08 787.751L732.093 786.165L739.105 784.179L746.118 781.806L753.13 779.059L760.143 775.957L767.155 772.517L774.168 768.761L781.18 764.713L788.193 760.397L795.205 755.84L802.218 751.069L809.23 746.116L816.243 741.009L823.256 735.78L830.268 730.462L837.281 725.088L851.306 714.302L858.318 708.957L865.331 703.688L872.343 698.528L879.356 693.507L886.368 688.659L893.381 684.011L900.393 679.593L907.406 675.432L914.418 671.554L921.431 667.983L928.444 664.74L935.456 661.846L942.469 659.318L949.481 657.172L956.494 655.422L963.506 654.078L970.519 653.148L977.531 652.638L984.544 652.551L991.556 652.888L998.569 653.647L1005.58 654.823L1012.59 656.409L1019.61 658.395L1026.62 660.768L1033.63 663.515L1040.64 666.617L1047.66 670.057L1054.67 673.813L1061.68 677.861L1068.69 682.177L1075.71 686.734L1082.72 691.505L1089.73 696.458L1096.74 701.565L1103.76 706.794L1110.77 712.112L1117.78 717.486L1131.81 728.272L1138.82 733.617L1145.83 738.886L1152.84 744.046L1159.86 749.066L1166.87 753.915L1173.88 758.563L1180.89 762.981L1187.91 767.142L1194.92 771.02L1201.93 774.591L1208.94 777.834L1215.96 780.728L1222.97 783.256L1229.98 785.402L1236.99 787.152L1244.01 788.496L1251.02 789.426L1258.03 789.936L1265.05 790.023L1272.06 789.686L1279.07 788.927L1286.08 787.751L1293.1 786.165L1300.11 784.179L1307.12 781.806L1314.13 779.059L1321.15 775.957L1328.16 772.517L1335.17 768.761L1342.18 764.713L1349.2 760.397L1356.21 755.84L1363.22 751.069L1370.23 746.116L1377.25 741.009L1384.26 735.78L1391.27 730.462L1398.28 725.088L1412.31 714.302L1419.32 708.957L1426.33 703.688L1433.35 698.528L1440.36 693.507L1447.37 688.659L1454.38 684.011L1461.4 679.593L1468.41 675.432L1475.42 671.554L1482.43 667.983L1489.45 664.74L1496.46 661.846L1503.47 659.318L1510.48 657.172L1517.5 655.422L1524.51 654.078L1531.52 653.148L1538.53 652.638L1545.55 652.551L1552.56 652.888L1559.57 653.647L1566.58 654.823L1573.6 656.409L1580.61 658.395L1587.62 660.768L1594.63 663.515L1601.65 666.617L1608.66 670.057L1615.67 673.813L1622.68 677.861L1629.7 682.177L1636.71 686.734L1643.72 691.505L1650.73 696.458L1657.75 701.565L1664.76 706.794L1671.77 712.112L1678.78 717.486L1692.81 728.272L1699.82 733.617L1706.83 738.886L1713.85 744.046L1720.86 749.066L1727.87 753.915L1734.88 758.563L1741.9 762.981L1748.91 767.142L1755.92 771.02L1762.93 774.591L1769.95 777.834L1776.96 780.728L1783.97 783.256L1790.98 785.402L1798 787.152L1805.01 788.496L1812.02 789.426L1819.03 789.936L1826.05 790.023L1833.06 789.686L1840.07 788.927L1847.09 787.751L1854.1 786.165L1861.11 784.179L1868.12 781.806L1875.14 779.059L1882.15 775.957L1889.16 772.517L1896.17 768.761L1903.19 764.713L1910.2 760.397L1917.21 755.84L1924.22 751.069L1931.24 746.116L1938.25 741.009L1945.26 735.78L1952.27 730.462L1959.29 725.088L1973.31 714.302L1980.32 708.957L1987.34 703.688L1994.35 698.528L2001.36 693.507L2008.37 688.659L2015.39 684.011L2022.4 679.593L2029.41 675.432L2036.42 671.554L2043.44 667.983L2050.45 664.74L2057.46 661.846L2064.47 659.318L2071.49 657.172L2078.5 655.422L2085.51 654.078L2092.52 653.148L2099.54 652.638L2106.55 652.551L2113.56 652.888L2120.57 653.647L2127.59 654.823L2134.6 656.409L2141.61 658.395L2148.62 660.768L2155.64 663.515L2162.65 666.617L2169.66 670.057L2176.67 673.813L2183.69 677.861L2190.7 682.177L2197.71 686.734L2204.72 691.505L2211.74 696.458L2218.75 701.565L2225.76 706.794L2232.77 712.112L2239.79 717.486L2253.81 728.272L2260.82 733.617L2267.84 738.886L2274.85 744.046L2281.86 749.066L2288.87 753.915L2295.89 758.563L2302.9 762.981L2309.91 767.142L2316.92 771.02L2323.94 774.591L2330.95 777.834L2337.96 780.728L2344.97 783.256L2351.99 785.402L2359 787.152M-439 898.474L-431.987 899.404L-424.975 899.913L-417.962 900L-410.95 899.663L-403.937 898.904L-396.925 897.728L-389.912 896.142L-382.9 894.157L-375.887 891.783L-368.875 889.037L-361.862 885.934L-354.85 882.494L-347.837 878.738L-340.825 874.69L-333.812 870.374L-326.8 865.817L-319.787 861.047L-312.774 856.093L-305.762 850.986L-298.749 845.757L-291.737 840.439L-284.724 835.065L-270.699 824.279L-263.687 818.934L-256.674 813.665L-249.662 808.505L-242.649 803.485L-235.637 798.636L-228.624 793.988L-221.612 789.57L-214.599 785.409L-207.586 781.531L-200.574 777.96L-193.561 774.717L-186.549 771.823L-179.536 769.295L-172.524 767.149L-165.511 765.399L-158.499 764.055L-151.486 763.125L-144.474 762.615L-137.461 762.528L-130.449 762.866L-123.436 763.625L-116.424 764.8L-109.411 766.386L-102.399 768.372L-95.386 770.745L-88.3735 773.492L-81.3609 776.595L-74.3484 780.034L-67.3359 783.79L-60.3233 787.838L-53.3108 792.154L-46.2983 796.712L-39.2857 801.482L-32.2732 806.436L-25.2607 811.543L-18.2482 816.771L-11.2356 822.089L-4.22307 827.463L9.80199 838.249L16.8145 843.594L23.827 848.863L30.8396 854.024L37.8521 859.044L44.8646 863.893L51.8772 868.54L58.8897 872.958L65.9022 877.119L72.9148 880.997L79.9273 884.569L86.9398 887.811L93.9523 890.706L100.965 893.233L107.977 895.379L114.99 897.129L122.002 898.474L129.015 899.404L136.028 899.913L143.04 900L150.053 899.663L157.065 898.904L164.078 897.728L171.09 896.142L178.103 894.157L185.115 891.783L192.128 889.037L199.14 885.934L206.153 882.494L213.165 878.738L220.178 874.69L227.19 870.374L234.203 865.817L241.216 861.047L248.228 856.093L255.241 850.986L262.253 845.757L269.266 840.439L276.278 835.065L290.303 824.279L297.316 818.934L304.328 813.665L311.341 808.505L318.353 803.485L325.366 798.636L332.378 793.988L339.391 789.57L346.403 785.409L353.416 781.531L360.429 777.96L367.441 774.717L374.454 771.823L381.466 769.295L388.479 767.149L395.491 765.399L402.504 764.055L409.516 763.125L416.529 762.615L423.541 762.528L430.554 762.866L437.566 763.625L444.579 764.8L451.591 766.386L458.604 768.372L465.616 770.745L472.629 773.492L479.642 776.595L486.654 780.034L493.667 783.79L500.679 787.838L507.692 792.154L514.704 796.712L521.717 801.482L528.729 806.436L535.742 811.543L542.754 816.771L549.767 822.089L556.779 827.463L570.804 838.249L577.817 843.594L584.83 848.863L591.842 854.024L598.855 859.044L605.867 863.893L612.88 868.54L619.892 872.958L626.905 877.119L633.917 880.997L640.93 884.569L647.942 887.811L654.955 890.706L661.967 893.233L668.98 895.379L675.992 897.129L683.005 898.474L690.017 899.404L697.03 899.913L704.043 900L711.055 899.663L718.068 898.904L725.08 897.728L732.093 896.142L739.105 894.157L746.118 891.783L753.13 889.037L760.143 885.934L767.155 882.494L774.168 878.738L781.18 874.69L788.193 870.374L795.205 865.817L802.218 861.047L809.23 856.093L816.243 850.986L823.256 845.757L830.268 840.439L837.281 835.065L851.306 824.279L858.318 818.934L865.331 813.665L872.343 808.505L879.356 803.485L886.368 798.636L893.381 793.988L900.393 789.57L907.406 785.409L914.418 781.531L921.431 777.96L928.444 774.717L935.456 771.823L942.469 769.295L949.481 767.149L956.494 765.399L963.506 764.055L970.519 763.125L977.531 762.615L984.544 762.528L991.556 762.866L998.569 763.625L1005.58 764.8L1012.59 766.386L1019.61 768.372L1026.62 770.745L1033.63 773.492L1040.64 776.595L1047.66 780.034L1054.67 783.79L1061.68 787.838L1068.69 792.154L1075.71 796.712L1082.72 801.482L1089.73 806.436L1096.74 811.543L1103.76 816.771L1110.77 822.089L1117.78 827.463L1131.81 838.249L1138.82 843.594L1145.83 848.863L1152.84 854.024L1159.86 859.044L1166.87 863.893L1173.88 868.54L1180.89 872.958L1187.91 877.119L1194.92 880.997L1201.93 884.569L1208.94 887.811L1215.96 890.706L1222.97 893.233L1229.98 895.379L1236.99 897.129L1244.01 898.474L1251.02 899.404L1258.03 899.913L1265.05 900L1272.06 899.663L1279.07 898.904L1286.08 897.728L1293.1 896.142L1300.11 894.157L1307.12 891.783L1314.13 889.037L1321.15 885.934L1328.16 882.494L1335.17 878.738L1342.18 874.69L1349.2 870.374L1356.21 865.817L1363.22 861.047L1370.23 856.093L1377.25 850.986L1384.26 845.757L1391.27 840.439L1398.28 835.065L1412.31 824.279L1419.32 818.934L1426.33 813.665L1433.35 808.505L1440.36 803.485L1447.37 798.636L1454.38 793.988L1461.4 789.57L1468.41 785.409L1475.42 781.531L1482.43 777.96L1489.45 774.717L1496.46 771.823L1503.47 769.295L1510.48 767.149L1517.5 765.399L1524.51 764.055L1531.52 763.125L1538.53 762.615L1545.55 762.528L1552.56 762.866L1559.57 763.625L1566.58 764.8L1573.6 766.386L1580.61 768.372L1587.62 770.745L1594.63 773.492L1601.65 776.595L1608.66 780.034L1615.67 783.79L1622.68 787.838L1629.7 792.154L1636.71 796.712L1643.72 801.482L1650.73 806.436L1657.75 811.543L1664.76 816.771L1671.77 822.089L1678.78 827.463L1692.81 838.249L1699.82 843.594L1706.83 848.863L1713.85 854.024L1720.86 859.044L1727.87 863.893L1734.88 868.54L1741.9 872.958L1748.91 877.119L1755.92 880.997L1762.93 884.569L1769.95 887.811L1776.96 890.706L1783.97 893.233L1790.98 895.379L1798 897.129L1805.01 898.474L1812.02 899.404L1819.03 899.913L1826.05 900L1833.06 899.663L1840.07 898.904L1847.09 897.728L1854.1 896.142L1861.11 894.157L1868.12 891.783L1875.14 889.037L1882.15 885.934L1889.16 882.494L1896.17 878.738L1903.19 874.69L1910.2 870.374L1917.21 865.817L1924.22 861.047L1931.24 856.093L1938.25 850.986L1945.26 845.757L1952.27 840.439L1959.29 835.065L1973.31 824.279L1980.32 818.934L1987.34 813.665L1994.35 808.505L2001.36 803.485L2008.37 798.636L2015.39 793.988L2022.4 789.57L2029.41 785.409L2036.42 781.531L2043.44 777.96L2050.45 774.717L2057.46 771.823L2064.47 769.295L2071.49 767.149L2078.5 765.399L2085.51 764.055L2092.52 763.125L2099.54 762.615L2106.55 762.528L2113.56 762.866L2120.57 763.625L2127.59 764.8L2134.6 766.386L2141.61 768.372L2148.62 770.745L2155.64 773.492L2162.65 776.595L2169.66 780.034L2176.67 783.79L2183.69 787.838L2190.7 792.154L2197.71 796.712L2204.72 801.482L2211.74 806.436L2218.75 811.543L2225.76 816.771L2232.77 822.089L2239.79 827.463L2253.81 838.249L2260.82 843.594L2267.84 848.863L2274.85 854.024L2281.86 859.044L2288.87 863.893L2295.89 868.54L2302.9 872.958L2309.91 877.119L2316.92 880.997L2323.94 884.569L2330.95 887.811L2337.96 890.706L2344.97 893.233L2351.99 895.379L2359 897.129" stroke="url(#paint0_linear_4_104)" stroke-width="7" stroke-miterlimit="10" stroke-linecap="round" stroke-linejoin="round"/>
<defs>
<linearGradient id="paint0_linear_4_104" x1="658.5" y1="-67" x2="960" y2="900" gradientUnits="userSpaceOnUse">
<stop stop-color="#5BA7FF"/>
<stop offset="1" stop-color="#5BA7FF" stop-opacity="0"/>
</linearGradient>
</defs>
</svg>
