<svg width="24" height="24" viewBox="0 0 24 24" fill="none" xmlns="http://www.w3.org/2000/svg">
<path fill-rule="evenodd" clip-rule="evenodd" d="M5.57344 3.14939C5.39062 3.28292 5.37656 3.33212 5.38359 3.74676L5.39062 4.19654C3.37266 4.19654 3.3375 4.20356 3.17578 4.37223C3.00703 4.5409 3 4.58307 3 5.48262C3.00703 5.98862 3.04922 6.64924 3.09844 6.93738C3.14766 7.22552 3.27422 7.70341 3.37969 7.99155C3.47813 8.27969 3.69609 8.75055 3.86484 9.03869C4.03359 9.33386 4.42031 9.83283 4.75781 10.1912C5.08828 10.5356 5.54531 10.9432 5.77734 11.0978C6.00937 11.2524 6.38906 11.4633 6.62109 11.5757C6.85312 11.6882 7.29609 11.8498 7.60547 11.9412C8.13984 12.0958 8.21016 12.1379 8.86406 12.7353C9.23672 13.0797 9.66563 13.5435 9.80625 13.7543C9.94688 13.9652 10.1367 14.3587 10.2352 14.6328C10.3898 15.0896 10.4039 15.2302 10.4109 16.46L10.418 17.7953C8.47734 17.8586 8.11172 17.8937 8.04844 17.957C7.98516 18.0202 7.94297 18.3505 7.92188 18.976L7.88672 19.9037C7.17656 19.9669 7.04297 20.0091 6.96563 20.1145C6.90938 20.1918 6.86719 20.3605 6.86719 20.487C6.86719 20.6486 6.91641 20.747 7.06406 20.8524C7.25391 20.993 7.33828 21 12 21C16.6617 21 16.7461 20.993 16.943 20.8524C17.0836 20.747 17.1328 20.6486 17.1328 20.487C17.1328 20.3605 17.0906 20.1918 17.0344 20.1145C16.957 20.0091 16.8234 19.9669 16.5211 19.9388L16.1133 19.9037C16.057 18.3505 16.0148 18.0202 15.9516 17.957C15.8883 17.8937 15.5227 17.8586 14.7211 17.8305L13.582 17.7953C13.5961 15.2302 13.6102 15.0896 13.7648 14.6328C13.8633 14.3587 14.0531 13.9652 14.1937 13.7543C14.3344 13.5435 14.7633 13.0797 15.1359 12.7353C15.7898 12.1379 15.8602 12.0958 16.3945 11.9412C16.7039 11.8498 17.1469 11.6882 17.3789 11.5757C17.6109 11.4633 17.9906 11.2524 18.2227 11.0978C18.4547 10.9432 18.9117 10.5356 19.2422 10.1912C19.5797 9.83283 19.9664 9.33386 20.1352 9.03869C20.3039 8.75055 20.5219 8.27969 20.6203 7.99155C20.7258 7.70341 20.8523 7.22552 20.9016 6.93738C20.9508 6.64924 20.993 5.98862 21 5.48262C21 4.57604 20.993 4.5409 20.8242 4.37223C20.6555 4.20356 20.6203 4.19654 19.6289 4.19654H18.6094C18.6094 3.32509 18.5953 3.26887 18.4195 3.14237C18.2227 3.00181 18.1523 2.99478 11.993 3.00181C5.79844 3.00181 5.76328 3.00181 5.57344 3.14939ZM6.44531 4.40034C6.44531 4.59712 6.49453 5.11015 6.55078 5.54587C6.60703 5.97457 6.73359 6.65627 6.83203 7.05685C6.93047 7.45041 7.12031 8.08291 7.26093 8.46241C7.40156 8.83488 7.64062 9.38305 7.79531 9.67119C7.95 9.95933 8.18906 10.374 8.32968 10.5848C8.47031 10.7956 9.04687 11.4281 9.60937 11.9904C10.5375 12.904 10.6711 13.0726 10.9312 13.6068C11.093 13.9371 11.2758 14.3939 11.3391 14.6258C11.4094 14.8999 11.4656 15.5253 11.4937 16.439L11.543 17.8234H12.457C12.5344 15.5253 12.5906 14.8999 12.6609 14.6258C12.7242 14.3939 12.907 13.9371 13.0687 13.6068C13.3289 13.0726 13.4625 12.904 14.3906 11.9904C14.9531 11.4281 15.5297 10.7956 15.6703 10.5848C15.8109 10.374 16.05 9.95933 16.2047 9.67119C16.3594 9.38305 16.5984 8.83488 16.7391 8.46241C16.8797 8.08291 17.0695 7.45041 17.168 7.05685C17.2664 6.65627 17.393 5.97457 17.4492 5.54587C17.5055 5.11015 17.5547 4.59712 17.5547 4.40034V4.04895H6.44531V4.40034ZM4.22343 7.18335C4.16015 6.94441 4.09687 6.41732 4.07578 6.00268L4.03359 5.25071H5.46093L5.50312 5.65129C5.52422 5.87618 5.61562 6.41732 5.70703 6.8671C5.79843 7.30985 6.00234 8.04074 6.16406 8.49755C6.31875 8.95436 6.57187 9.57983 6.72656 9.88905C6.88125 10.1912 7.00078 10.4794 6.98672 10.5216C6.97968 10.5637 6.73359 10.4442 6.44531 10.2545C6.15703 10.0647 5.7 9.67822 5.43281 9.39008C5.10234 9.02463 4.86328 8.67324 4.64531 8.23752C4.47656 7.88613 4.28672 7.41527 4.22343 7.18335ZM18.5039 5.65129C18.4758 5.87618 18.3844 6.42435 18.293 6.8671C18.1945 7.30985 17.9906 8.04777 17.8359 8.50458C17.6812 8.95436 17.4281 9.57983 17.2734 9.88905C17.1187 10.1983 16.9992 10.4864 17.0062 10.5286C17.0203 10.5707 17.2664 10.4442 17.5547 10.2545C17.843 10.0718 18.3 9.67822 18.5602 9.39008C18.8977 9.03166 19.1367 8.68027 19.3547 8.23752C19.5234 7.89316 19.7133 7.41527 19.7766 7.18335C19.8328 6.95143 19.9102 6.42435 19.9312 6.00268L19.9805 5.25071H18.5531L18.5039 5.65129ZM8.97656 19.9388H15.0234V18.8846H8.97656V19.9388Z" fill="#FFAF51"/>
</svg>
