<svg width="24" height="24" viewBox="0 0 24 24" fill="none" xmlns="http://www.w3.org/2000/svg">
<path d="M4.2173 3.34082C4.41422 3.2395 4.67379 3.11975 4.7991 3.0829C4.92442 3.03685 5.28245 3.01842 5.60467 3.03685C5.9269 3.04606 6.32074 3.12896 6.48185 3.21186C6.63401 3.30398 6.91149 3.50663 7.0905 3.66322C7.26952 3.82903 7.51119 4.15143 7.6186 4.38172C7.72601 4.612 7.85132 4.96204 7.87817 5.16469C7.91397 5.38576 7.88712 5.7358 7.80656 6.03977C7.73496 6.31612 7.6544 6.62009 7.62755 6.703C7.58279 6.83196 7.62755 6.8688 7.79761 6.8688C7.93187 6.8688 8.34361 6.62009 8.8538 6.24242C9.45351 5.78185 9.78468 5.59762 10.0801 5.54236C10.3754 5.4963 10.5903 5.51472 11.2884 5.78185L15.2089 4.39093C17.357 3.62638 19.2188 3 19.3441 3C19.4873 3 19.6395 3.09211 19.7469 3.24871C19.8543 3.39609 19.9349 3.60795 19.9349 3.73691C19.9349 3.86587 19.8543 4.06853 19.7558 4.19749C19.6126 4.38172 18.8697 4.66727 12.0045 7.0254L11.9597 7.3478C11.9329 7.53203 11.7897 7.836 11.6375 8.02944C11.4853 8.23209 10.8856 8.76636 10.3038 9.21772C9.72203 9.66908 9.22974 10.102 9.21183 10.1573C9.19393 10.2494 9.26554 10.2586 9.56987 10.1757C9.84734 10.0928 10.0353 10.0928 10.2859 10.1757C10.4649 10.231 10.7245 10.3784 10.8677 10.4889C11.002 10.6086 11.181 10.8481 11.2616 11.0232C11.3421 11.1982 11.5748 12.3496 11.7807 13.5931C11.9776 14.8367 12.1387 16.0802 12.1387 16.8632L13.0965 16.7895C13.6335 16.7527 14.636 16.6145 15.3431 16.4855C16.0413 16.3658 17.3302 16.071 18.1984 15.8407C19.0756 15.6012 19.9259 15.3986 20.087 15.3802C20.3018 15.3525 20.4272 15.3986 20.5972 15.5736C20.7404 15.721 20.821 15.9052 20.821 16.0987C20.8299 16.2737 20.7583 16.4763 20.6688 16.5592C20.5793 16.6513 20.2034 16.8264 19.8364 16.9461C19.4694 17.0659 18.5206 17.3146 17.733 17.4988C16.9453 17.683 15.7548 17.9041 15.0925 18.0054C14.4301 18.1068 13.5888 18.2265 13.2307 18.2633C12.8637 18.3094 12.5952 18.3739 12.6131 18.4292C12.631 18.4844 13.0696 18.7147 14.5107 19.3779L15.8354 18.7884C16.5783 18.4568 17.2765 18.1989 17.4465 18.1989C17.6077 18.1989 18.3864 18.5028 19.2009 18.8713C20.4003 19.4056 20.7046 19.5898 20.8389 19.8109C20.9284 19.9583 21 20.1977 21 20.3359C21 20.4833 20.9194 20.6767 20.821 20.7781C20.7136 20.8886 20.5256 20.9623 20.3287 20.9623C20.1139 20.9623 19.6484 20.7689 18.8966 20.3636C18.279 20.0319 17.724 19.7648 17.6703 19.7648C17.6077 19.7648 16.9722 20.0319 16.2561 20.3636C15.54 20.6952 14.824 20.9623 14.6718 20.9623C14.5107 20.9623 13.8125 20.7136 11.8702 19.8569L10.5992 20.3728C9.89209 20.6583 9.17603 20.9162 9.00597 20.9439C8.74639 20.9807 8.50472 20.8886 6.455 19.7832L5.20189 20.3912C4.50373 20.7228 3.81452 20.9991 3.65341 20.9991C3.42964 21.0084 3.30433 20.9439 3.17902 20.7781C3.08056 20.6491 3 20.4188 3 20.2714C3 20.1241 3.07161 19.9214 3.16111 19.8385C3.25062 19.7556 3.87718 19.4148 4.55743 19.0832C5.22874 18.7516 5.78369 18.4384 5.78369 18.3831C5.78369 18.3278 5.72103 18.291 5.64943 18.291C5.57782 18.291 5.04078 18.2265 4.46793 18.1436C3.6176 18.0331 3.36698 17.9686 3.20587 17.8028C3.08056 17.683 3.00895 17.4896 3.00895 17.3238C3.00895 17.1764 3.07161 16.9553 3.14321 16.8356C3.21482 16.725 3.38488 16.6145 3.5281 16.5869C3.66236 16.5592 3.99354 16.5777 4.26206 16.6329C4.53058 16.6882 5.3809 16.7895 6.14172 16.8632C6.90254 16.9369 7.87817 17.0014 8.31676 17.0014C9.08652 17.0014 9.09547 17.0014 9.01492 16.7895C8.97911 16.679 8.84485 15.9789 8.72849 15.2236C8.61213 14.4774 8.47787 13.8695 8.42417 13.8695C8.37046 13.8695 7.93187 13.934 7.43958 14.0169C6.75037 14.1274 6.46395 14.1366 6.21333 14.0629C6.02536 14.0077 5.73894 13.8419 5.58677 13.7037C5.42566 13.5563 5.24664 13.3168 5.18399 13.1694C5.12133 13.022 4.95127 12.1746 4.7991 11.2903C4.63799 10.406 4.45898 9.24535 4.39632 8.71109C4.28891 7.90048 4.23521 7.71625 4.06514 7.57808C3.94878 7.48597 3.76082 7.32016 3.6355 7.20041C3.51019 7.08988 3.33118 6.83196 3.23272 6.62931C3.13426 6.41744 3.04475 6.01214 3.02685 5.62526C3 5.15548 3.0358 4.86992 3.15216 4.56594C3.24167 4.33566 3.43859 4.01326 3.59075 3.83824C3.73396 3.67243 4.02039 3.44215 4.2173 3.34082Z" fill="#51A1FF"/>
</svg>
