<svg width="24" height="24" viewBox="0 0 24 24" fill="none" xmlns="http://www.w3.org/2000/svg">
<g clip-path="url(#clip0_4_152)">
<path d="M-59 8.23534L-58.7299 8.27115L-58.4597 8.29078L-58.1896 8.29412L-57.9195 8.28113L-57.6493 8.25191L-57.3792 8.20662L-57.109 8.14556L-56.8389 8.06909L-56.5688 7.97768L-56.2986 7.87191L-56.0285 7.75242L-55.7584 7.61996L-55.4882 7.47532L-55.2181 7.31942L-54.948 7.1532L-54.6778 6.9777L-54.4077 6.794L-54.1375 6.60322L-53.8674 6.40655L-53.5973 6.2052L-53.3271 6.0004L-53.057 5.79343L-52.5167 5.37806L-52.2466 5.17222L-51.9765 4.96931L-51.7063 4.77058L-51.4362 4.57725L-51.166 4.39052L-50.8959 4.21153L-50.6258 4.0414L-50.3556 3.88116L-50.0855 3.73182L-49.8154 3.59428L-49.5452 3.46939L-49.2751 3.35793L-49.005 3.26059L-48.7348 3.17796L-48.4647 3.11055L-48.1945 3.05878L-47.9244 3.02297L-47.6543 3.00334L-47.3841 3L-47.114 3.01299L-46.8439 3.04221L-46.5737 3.0875L-46.3036 3.14856L-46.0335 3.22503L-45.7633 3.31643L-45.4932 3.42221L-45.223 3.54169L-44.9529 3.67416L-44.6828 3.8188L-44.4126 3.9747L-44.1425 4.14091L-43.8724 4.31642L-43.6022 4.50012L-43.3321 4.6909L-43.062 4.88757L-42.7918 5.08892L-42.5217 5.29371L-42.2515 5.50069L-41.7113 5.91606L-41.4411 6.1219L-41.171 6.32481L-40.9009 6.52354L-40.6307 6.71687L-40.3606 6.9036L-40.0905 7.08258L-39.8203 7.25272L-39.5502 7.41295L-39.28 7.5623L-39.0099 7.69984L-38.7398 7.82473L-38.4696 7.93618L-38.1995 8.03353L-37.9294 8.11616L-37.6592 8.18357L-37.3891 8.23534L-37.119 8.27115L-36.8488 8.29078L-36.5787 8.29412L-36.3085 8.28113L-36.0384 8.25191L-35.7683 8.20662L-35.4981 8.14556L-35.228 8.06909L-34.9579 7.97768L-34.6877 7.87191L-34.4176 7.75242L-34.1475 7.61996L-33.8773 7.47532L-33.6072 7.31942L-33.337 7.1532L-33.0669 6.9777L-32.7968 6.794L-32.5266 6.60322L-32.2565 6.40655L-31.9864 6.2052L-31.7162 6.0004L-31.4461 5.79343L-30.9058 5.37806L-30.6357 5.17222L-30.3655 4.96931L-30.0954 4.77058L-29.8253 4.57725L-29.5551 4.39052L-29.285 4.21153L-29.0149 4.0414L-28.7447 3.88116L-28.4746 3.73182L-28.2044 3.59428L-27.9343 3.46939L-27.6642 3.35793L-27.394 3.26059L-27.1239 3.17796L-26.8538 3.11055L-26.5836 3.05878L-26.3135 3.02297L-26.0434 3.00334L-25.7732 3L-25.5031 3.01299L-25.2329 3.04221L-24.9628 3.0875L-24.6927 3.14856L-24.4225 3.22503L-24.1524 3.31643L-23.8823 3.42221L-23.6121 3.54169L-23.342 3.67416L-23.0719 3.8188L-22.8017 3.9747L-22.5316 4.14091L-22.2614 4.31642L-21.9913 4.50012L-21.7212 4.6909L-21.451 4.88757L-21.1809 5.08892L-20.9108 5.29371L-20.6406 5.50069L-20.1004 5.91606L-19.8302 6.1219L-19.5601 6.32481L-19.2899 6.52354L-19.0198 6.71687L-18.7497 6.9036L-18.4795 7.08258L-18.2094 7.25272L-17.9393 7.41295L-17.6691 7.5623L-17.399 7.69984L-17.1289 7.82473L-16.8587 7.93618L-16.5886 8.03353L-16.3184 8.11616L-16.0483 8.18357L-15.7782 8.23534L-15.508 8.27115L-15.2379 8.29078L-14.9678 8.29412L-14.6976 8.28113L-14.4275 8.25191L-14.1574 8.20662L-13.8872 8.14556L-13.6171 8.06909L-13.3469 7.97768L-13.0768 7.87191L-12.8067 7.75242L-12.5365 7.61996L-12.2664 7.47532L-11.9963 7.31942L-11.7261 7.1532L-11.456 6.9777L-11.1859 6.794L-10.9157 6.60322L-10.6456 6.40655L-10.3754 6.2052L-10.1053 6.0004L-9.83517 5.79343L-9.2949 5.37806L-9.02477 5.17222L-8.75463 4.96931L-8.48449 4.77058L-8.21436 4.57725L-7.94422 4.39052L-7.67408 4.21153L-7.40395 4.0414L-7.13381 3.88116L-6.86367 3.73182L-6.59353 3.59428L-6.3234 3.46939L-6.05326 3.35793L-5.78312 3.26059L-5.51299 3.17796L-5.24285 3.11055L-4.97272 3.05878L-4.70258 3.02297L-4.43244 3.00334L-4.16231 3L-3.89217 3.01299L-3.62203 3.04221L-3.3519 3.0875L-3.08176 3.14856L-2.81162 3.22503L-2.54149 3.31643L-2.27135 3.42221L-2.00122 3.54169L-1.73108 3.67416L-1.46094 3.8188L-1.19081 3.9747L-0.92067 4.14091L-0.650533 4.31642L-0.380397 4.50012L-0.110261 4.6909L0.159876 4.88757L0.430012 5.08892L0.700148 5.29371L0.970285 5.50069L1.51056 5.91606L1.78069 6.1219L2.05083 6.32481L2.32097 6.52354L2.5911 6.71687L2.86124 6.9036L3.13138 7.08258L3.40151 7.25272L3.67165 7.41295L3.94179 7.5623L4.21192 7.69984L4.48206 7.82473L4.75219 7.93618L5.02233 8.03353L5.29247 8.11616L5.5626 8.18357L5.83274 8.23534L6.10288 8.27115L6.37301 8.29078L6.64315 8.29412L6.91329 8.28113L7.18342 8.25191L7.45356 8.20662L7.72369 8.14556L7.99383 8.06909L8.26397 7.97768L8.5341 7.87191L8.80424 7.75242L9.07438 7.61996L9.34451 7.47532L9.61465 7.31942L9.88479 7.1532L10.1549 6.9777L10.4251 6.794L10.6952 6.60322L10.9653 6.40655L11.2355 6.2052L11.5056 6.0004L11.7757 5.79343L12.316 5.37806L12.5861 5.17222L12.8563 4.96931L13.1264 4.77058L13.3966 4.57725L13.6667 4.39052L13.9368 4.21153L14.207 4.0414L14.4771 3.88116L14.7472 3.73182L15.0174 3.59428L15.2875 3.46939L15.5576 3.35793L15.8278 3.26059L16.0979 3.17796L16.3681 3.11055L16.6382 3.05878L16.9083 3.02297L17.1785 3.00334L17.4486 3L17.7187 3.01299L17.9889 3.04221L18.259 3.0875L18.5291 3.14856L18.7993 3.22503L19.0694 3.31643L19.3396 3.42221L19.6097 3.54169L19.8798 3.67416L20.15 3.8188L20.4201 3.9747L20.6902 4.14091L20.9604 4.31642L21.2305 4.50012L21.5006 4.6909L21.7708 4.88757L22.0409 5.08892L22.3111 5.29371L22.5812 5.50069L23.1215 5.91606L23.3916 6.1219L23.6617 6.32481L23.9319 6.52354L24.202 6.71687L24.4722 6.9036L24.7423 7.08258L25.0124 7.25272L25.2826 7.41295L25.5527 7.5623L25.8228 7.69984L26.093 7.82473L26.3631 7.93618L26.6332 8.03353L26.9034 8.11616L27.1735 8.18357L27.4437 8.23534L27.7138 8.27115L27.9839 8.29078L28.2541 8.29412L28.5242 8.28113L28.7943 8.25191L29.0645 8.20662L29.3346 8.14556L29.6047 8.06909L29.8749 7.97768L30.145 7.87191L30.4152 7.75242L30.6853 7.61996L30.9554 7.47532L31.2256 7.31942L31.4957 7.1532L31.7658 6.9777L32.036 6.794L32.3061 6.60322L32.5762 6.40655L32.8464 6.2052L33.1165 6.0004L33.3867 5.79343L33.9269 5.37806L34.1971 5.17222L34.4672 4.96931L34.7373 4.77058L35.0075 4.57725L35.2776 4.39052L35.5477 4.21153L35.8179 4.0414L36.088 3.88116L36.3582 3.73182L36.6283 3.59428L36.8984 3.46939L37.1686 3.35793L37.4387 3.26059L37.7088 3.17796L37.979 3.11055L38.2491 3.05878L38.5192 3.02297L38.7894 3.00334L39.0595 3L39.3297 3.01299L39.5998 3.04221L39.8699 3.0875L40.1401 3.14856L40.4102 3.22503L40.6803 3.31643L40.9505 3.42221L41.2206 3.54169L41.4907 3.67416L41.7609 3.8188L42.031 3.9747L42.3012 4.14091L42.5713 4.31642L42.8414 4.50012L43.1116 4.6909L43.3817 4.88757L43.6518 5.08892L43.922 5.29371L44.1921 5.50069L44.7324 5.91606L45.0025 6.1219L45.2727 6.32481L45.5428 6.52354L45.8129 6.71687L46.0831 6.9036L46.3532 7.08258L46.6233 7.25272L46.8935 7.41295L47.1636 7.5623L47.4338 7.69984L47.7039 7.82473L47.974 7.93618L48.2442 8.03353L48.5143 8.11616L48.7844 8.18357M-59 12.4706L-58.7299 12.5064L-58.4597 12.5261L-58.1896 12.5294L-57.9195 12.5164L-57.6493 12.4872L-57.3792 12.4419L-57.109 12.3808L-56.8389 12.3044L-56.5688 12.213L-56.2986 12.1072L-56.0285 11.9877L-55.7584 11.8552L-55.4882 11.7106L-55.2181 11.5547L-54.948 11.3885L-54.6778 11.213L-54.4077 11.0293L-54.1375 10.8385L-53.8674 10.6418L-53.5973 10.4405L-53.3271 10.2357L-53.057 10.0287L-52.5167 9.61335L-52.2466 9.40752L-51.9765 9.20461L-51.7063 9.00587L-51.4362 8.81255L-51.166 8.62581L-50.8959 8.44683L-50.6258 8.27669L-50.3556 8.11646L-50.0855 7.96711L-49.8154 7.82957L-49.5452 7.70469L-49.2751 7.59323L-49.005 7.49588L-48.7348 7.41325L-48.4647 7.34584L-48.1945 7.29407L-47.9244 7.25826L-47.6543 7.23863L-47.3841 7.23529L-47.114 7.24828L-46.8439 7.27751L-46.5737 7.32279L-46.3036 7.38386L-46.0335 7.46033L-45.7633 7.55173L-45.4932 7.6575L-45.223 7.77699L-44.9529 7.90946L-44.6828 8.05409L-44.4126 8.20999L-44.1425 8.37621L-43.8724 8.55171L-43.6022 8.73541L-43.3321 8.92619L-43.062 9.12286L-42.7918 9.32421L-42.5217 9.52901L-42.2515 9.73598L-41.7113 10.1514L-41.4411 10.3572L-41.171 10.5601L-40.9009 10.7588L-40.6307 10.9522L-40.3606 11.1389L-40.0905 11.3179L-39.8203 11.488L-39.5502 11.6482L-39.28 11.7976L-39.0099 11.9351L-38.7398 12.06L-38.4696 12.1715L-38.1995 12.2688L-37.9294 12.3515L-37.6592 12.4189L-37.3891 12.4706L-37.119 12.5064L-36.8488 12.5261L-36.5787 12.5294L-36.3085 12.5164L-36.0384 12.4872L-35.7683 12.4419L-35.4981 12.3808L-35.228 12.3044L-34.9579 12.213L-34.6877 12.1072L-34.4176 11.9877L-34.1475 11.8552L-33.8773 11.7106L-33.6072 11.5547L-33.337 11.3885L-33.0669 11.213L-32.7968 11.0293L-32.5266 10.8385L-32.2565 10.6418L-31.9864 10.4405L-31.7162 10.2357L-31.4461 10.0287L-30.9058 9.61335L-30.6357 9.40752L-30.3655 9.20461L-30.0954 9.00587L-29.8253 8.81255L-29.5551 8.62581L-29.285 8.44683L-29.0149 8.27669L-28.7447 8.11646L-28.4746 7.96711L-28.2044 7.82957L-27.9343 7.70469L-27.6642 7.59323L-27.394 7.49588L-27.1239 7.41325L-26.8538 7.34584L-26.5836 7.29407L-26.3135 7.25826L-26.0434 7.23863L-25.7732 7.23529L-25.5031 7.24828L-25.2329 7.27751L-24.9628 7.32279L-24.6927 7.38386L-24.4225 7.46033L-24.1524 7.55173L-23.8823 7.6575L-23.6121 7.77699L-23.342 7.90946L-23.0719 8.05409L-22.8017 8.20999L-22.5316 8.37621L-22.2614 8.55171L-21.9913 8.73541L-21.7212 8.92619L-21.451 9.12286L-21.1809 9.32421L-20.9108 9.52901L-20.6406 9.73598L-20.1004 10.1514L-19.8302 10.3572L-19.5601 10.5601L-19.2899 10.7588L-19.0198 10.9522L-18.7497 11.1389L-18.4795 11.3179L-18.2094 11.488L-17.9393 11.6482L-17.6691 11.7976L-17.399 11.9351L-17.1289 12.06L-16.8587 12.1715L-16.5886 12.2688L-16.3184 12.3515L-16.0483 12.4189L-15.7782 12.4706L-15.508 12.5064L-15.2379 12.5261L-14.9678 12.5294L-14.6976 12.5164L-14.4275 12.4872L-14.1574 12.4419L-13.8872 12.3808L-13.6171 12.3044L-13.3469 12.213L-13.0768 12.1072L-12.8067 11.9877L-12.5365 11.8552L-12.2664 11.7106L-11.9963 11.5547L-11.7261 11.3885L-11.456 11.213L-11.1859 11.0293L-10.9157 10.8385L-10.6456 10.6418L-10.3754 10.4405L-10.1053 10.2357L-9.83517 10.0287L-9.2949 9.61335L-9.02477 9.40752L-8.75463 9.20461L-8.48449 9.00587L-8.21436 8.81255L-7.94422 8.62581L-7.67408 8.44683L-7.40395 8.27669L-7.13381 8.11646L-6.86367 7.96711L-6.59353 7.82957L-6.3234 7.70469L-6.05326 7.59323L-5.78312 7.49588L-5.51299 7.41325L-5.24285 7.34584L-4.97272 7.29407L-4.70258 7.25826L-4.43244 7.23863L-4.16231 7.23529L-3.89217 7.24828L-3.62203 7.27751L-3.3519 7.32279L-3.08176 7.38386L-2.81162 7.46033L-2.54149 7.55173L-2.27135 7.6575L-2.00122 7.77699L-1.73108 7.90946L-1.46094 8.05409L-1.19081 8.20999L-0.92067 8.37621L-0.650533 8.55171L-0.380397 8.73541L-0.110261 8.92619L0.159876 9.12286L0.430012 9.32421L0.700148 9.52901L0.970285 9.73598L1.51056 10.1514L1.78069 10.3572L2.05083 10.5601L2.32097 10.7588L2.5911 10.9522L2.86124 11.1389L3.13138 11.3179L3.40151 11.488L3.67165 11.6482L3.94179 11.7976L4.21192 11.9351L4.48206 12.06L4.75219 12.1715L5.02233 12.2688L5.29247 12.3515L5.5626 12.4189L5.83274 12.4706L6.10288 12.5064L6.37301 12.5261L6.64315 12.5294L6.91329 12.5164L7.18342 12.4872L7.45356 12.4419L7.72369 12.3808L7.99383 12.3044L8.26397 12.213L8.5341 12.1072L8.80424 11.9877L9.07438 11.8552L9.34451 11.7106L9.61465 11.5547L9.88479 11.3885L10.1549 11.213L10.4251 11.0293L10.6952 10.8385L10.9653 10.6418L11.2355 10.4405L11.5056 10.2357L11.7757 10.0287L12.316 9.61335L12.5861 9.40752L12.8563 9.20461L13.1264 9.00587L13.3966 8.81255L13.6667 8.62581L13.9368 8.44683L14.207 8.27669L14.4771 8.11646L14.7472 7.96711L15.0174 7.82957L15.2875 7.70469L15.5576 7.59323L15.8278 7.49588L16.0979 7.41325L16.3681 7.34584L16.6382 7.29407L16.9083 7.25826L17.1785 7.23863L17.4486 7.23529L17.7187 7.24828L17.9889 7.27751L18.259 7.32279L18.5291 7.38386L18.7993 7.46033L19.0694 7.55173L19.3396 7.6575L19.6097 7.77699L19.8798 7.90946L20.15 8.05409L20.4201 8.20999L20.6902 8.37621L20.9604 8.55171L21.2305 8.73541L21.5006 8.92619L21.7708 9.12286L22.0409 9.32421L22.3111 9.52901L22.5812 9.73598L23.1215 10.1514L23.3916 10.3572L23.6617 10.5601L23.9319 10.7588L24.202 10.9522L24.4722 11.1389L24.7423 11.3179L25.0124 11.488L25.2826 11.6482L25.5527 11.7976L25.8228 11.9351L26.093 12.06L26.3631 12.1715L26.6332 12.2688L26.9034 12.3515L27.1735 12.4189L27.4437 12.4706L27.7138 12.5064L27.9839 12.5261L28.2541 12.5294L28.5242 12.5164L28.7943 12.4872L29.0645 12.4419L29.3346 12.3808L29.6047 12.3044L29.8749 12.213L30.145 12.1072L30.4152 11.9877L30.6853 11.8552L30.9554 11.7106L31.2256 11.5547L31.4957 11.3885L31.7658 11.213L32.036 11.0293L32.3061 10.8385L32.5762 10.6418L32.8464 10.4405L33.1165 10.2357L33.3867 10.0287L33.9269 9.61335L34.1971 9.40752L34.4672 9.20461L34.7373 9.00587L35.0075 8.81255L35.2776 8.62581L35.5477 8.44683L35.8179 8.27669L36.088 8.11646L36.3582 7.96711L36.6283 7.82957L36.8984 7.70469L37.1686 7.59323L37.4387 7.49588L37.7088 7.41325L37.979 7.34584L38.2491 7.29407L38.5192 7.25826L38.7894 7.23863L39.0595 7.23529L39.3297 7.24828L39.5998 7.27751L39.8699 7.32279L40.1401 7.38386L40.4102 7.46033L40.6803 7.55173L40.9505 7.6575L41.2206 7.77699L41.4907 7.90946L41.7609 8.05409L42.031 8.20999L42.3012 8.37621L42.5713 8.55171L42.8414 8.73541L43.1116 8.92619L43.3817 9.12286L43.6518 9.32421L43.922 9.52901L44.1921 9.73598L44.7324 10.1514L45.0025 10.3572L45.2727 10.5601L45.5428 10.7588L45.8129 10.9522L46.0831 11.1389L46.3532 11.3179L46.6233 11.488L46.8935 11.6482L47.1636 11.7976L47.4338 11.9351L47.7039 12.06L47.974 12.1715L48.2442 12.2688L48.5143 12.3515L48.7844 12.4189M-59 16.7059L-58.7299 16.7417L-58.4597 16.7614L-58.1896 16.7647L-57.9195 16.7517L-57.6493 16.7225L-57.3792 16.6772L-57.109 16.6161L-56.8389 16.5397L-56.5688 16.4483L-56.2986 16.3425L-56.0285 16.223L-55.7584 16.0905L-55.4882 15.9459L-55.2181 15.79L-54.948 15.6238L-54.6778 15.4483L-54.4077 15.2646L-54.1375 15.0738L-53.8674 14.8771L-53.5973 14.6758L-53.3271 14.471L-53.057 14.264L-52.5167 13.8486L-52.2466 13.6428L-51.9765 13.4399L-51.7063 13.2412L-51.4362 13.0478L-51.166 12.8611L-50.8959 12.6821L-50.6258 12.512L-50.3556 12.3518L-50.0855 12.2024L-49.8154 12.0649L-49.5452 11.94L-49.2751 11.8285L-49.005 11.7312L-48.7348 11.6485L-48.4647 11.5811L-48.1945 11.5294L-47.9244 11.4936L-47.6543 11.4739L-47.3841 11.4706L-47.114 11.4836L-46.8439 11.5128L-46.5737 11.5581L-46.3036 11.6192L-46.0335 11.6956L-45.7633 11.787L-45.4932 11.8928L-45.223 12.0123L-44.9529 12.1448L-44.6828 12.2894L-44.4126 12.4453L-44.1425 12.6115L-43.8724 12.787L-43.6022 12.9707L-43.3321 13.1615L-43.062 13.3582L-42.7918 13.5595L-42.5217 13.7643L-42.2515 13.9713L-41.7113 14.3866L-41.4411 14.5925L-41.171 14.7954L-40.9009 14.9941L-40.6307 15.1875L-40.3606 15.3742L-40.0905 15.5532L-39.8203 15.7233L-39.5502 15.8835L-39.28 16.0329L-39.0099 16.1704L-38.7398 16.2953L-38.4696 16.4068L-38.1995 16.5041L-37.9294 16.5867L-37.6592 16.6542L-37.3891 16.7059L-37.119 16.7417L-36.8488 16.7614L-36.5787 16.7647L-36.3085 16.7517L-36.0384 16.7225L-35.7683 16.6772L-35.4981 16.6161L-35.228 16.5397L-34.9579 16.4483L-34.6877 16.3425L-34.4176 16.223L-34.1475 16.0905L-33.8773 15.9459L-33.6072 15.79L-33.337 15.6238L-33.0669 15.4483L-32.7968 15.2646L-32.5266 15.0738L-32.2565 14.8771L-31.9864 14.6758L-31.7162 14.471L-31.4461 14.264L-30.9058 13.8486L-30.6357 13.6428L-30.3655 13.4399L-30.0954 13.2412L-29.8253 13.0478L-29.5551 12.8611L-29.285 12.6821L-29.0149 12.512L-28.7447 12.3518L-28.4746 12.2024L-28.2044 12.0649L-27.9343 11.94L-27.6642 11.8285L-27.394 11.7312L-27.1239 11.6485L-26.8538 11.5811L-26.5836 11.5294L-26.3135 11.4936L-26.0434 11.4739L-25.7732 11.4706L-25.5031 11.4836L-25.2329 11.5128L-24.9628 11.5581L-24.6927 11.6192L-24.4225 11.6956L-24.1524 11.787L-23.8823 11.8928L-23.6121 12.0123L-23.342 12.1448L-23.0719 12.2894L-22.8017 12.4453L-22.5316 12.6115L-22.2614 12.787L-21.9913 12.9707L-21.7212 13.1615L-21.451 13.3582L-21.1809 13.5595L-20.9108 13.7643L-20.6406 13.9713L-20.1004 14.3866L-19.8302 14.5925L-19.5601 14.7954L-19.2899 14.9941L-19.0198 15.1875L-18.7497 15.3742L-18.4795 15.5532L-18.2094 15.7233L-17.9393 15.8835L-17.6691 16.0329L-17.399 16.1704L-17.1289 16.2953L-16.8587 16.4068L-16.5886 16.5041L-16.3184 16.5867L-16.0483 16.6542L-15.7782 16.7059L-15.508 16.7417L-15.2379 16.7614L-14.9678 16.7647L-14.6976 16.7517L-14.4275 16.7225L-14.1574 16.6772L-13.8872 16.6161L-13.6171 16.5397L-13.3469 16.4483L-13.0768 16.3425L-12.8067 16.223L-12.5365 16.0905L-12.2664 15.9459L-11.9963 15.79L-11.7261 15.6238L-11.456 15.4483L-11.1859 15.2646L-10.9157 15.0738L-10.6456 14.8771L-10.3754 14.6758L-10.1053 14.471L-9.83517 14.264L-9.2949 13.8486L-9.02477 13.6428L-8.75463 13.4399L-8.48449 13.2412L-8.21436 13.0478L-7.94422 12.8611L-7.67408 12.6821L-7.40395 12.512L-7.13381 12.3518L-6.86367 12.2024L-6.59353 12.0649L-6.3234 11.94L-6.05326 11.8285L-5.78312 11.7312L-5.51299 11.6485L-5.24285 11.5811L-4.97272 11.5294L-4.70258 11.4936L-4.43244 11.4739L-4.16231 11.4706L-3.89217 11.4836L-3.62203 11.5128L-3.3519 11.5581L-3.08176 11.6192L-2.81162 11.6956L-2.54149 11.787L-2.27135 11.8928L-2.00122 12.0123L-1.73108 12.1448L-1.46094 12.2894L-1.19081 12.4453L-0.92067 12.6115L-0.650533 12.787L-0.380397 12.9707L-0.110261 13.1615L0.159876 13.3582L0.430012 13.5595L0.700148 13.7643L0.970285 13.9713L1.51056 14.3866L1.78069 14.5925L2.05083 14.7954L2.32097 14.9941L2.5911 15.1875L2.86124 15.3742L3.13138 15.5532L3.40151 15.7233L3.67165 15.8835L3.94179 16.0329L4.21192 16.1704L4.48206 16.2953L4.75219 16.4068L5.02233 16.5041L5.29247 16.5867L5.5626 16.6542L5.83274 16.7059L6.10288 16.7417L6.37301 16.7614L6.64315 16.7647L6.91329 16.7517L7.18342 16.7225L7.45356 16.6772L7.72369 16.6161L7.99383 16.5397L8.26397 16.4483L8.5341 16.3425L8.80424 16.223L9.07438 16.0905L9.34451 15.9459L9.61465 15.79L9.88479 15.6238L10.1549 15.4483L10.4251 15.2646L10.6952 15.0738L10.9653 14.8771L11.2355 14.6758L11.5056 14.471L11.7757 14.264L12.316 13.8486L12.5861 13.6428L12.8563 13.4399L13.1264 13.2412L13.3966 13.0478L13.6667 12.8611L13.9368 12.6821L14.207 12.512L14.4771 12.3518L14.7472 12.2024L15.0174 12.0649L15.2875 11.94L15.5576 11.8285L15.8278 11.7312L16.0979 11.6485L16.3681 11.5811L16.6382 11.5294L16.9083 11.4936L17.1785 11.4739L17.4486 11.4706L17.7187 11.4836L17.9889 11.5128L18.259 11.5581L18.5291 11.6192L18.7993 11.6956L19.0694 11.787L19.3396 11.8928L19.6097 12.0123L19.8798 12.1448L20.15 12.2894L20.4201 12.4453L20.6902 12.6115L20.9604 12.787L21.2305 12.9707L21.5006 13.1615L21.7708 13.3582L22.0409 13.5595L22.3111 13.7643L22.5812 13.9713L23.1215 14.3866L23.3916 14.5925L23.6617 14.7954L23.9319 14.9941L24.202 15.1875L24.4722 15.3742L24.7423 15.5532L25.0124 15.7233L25.2826 15.8835L25.5527 16.0329L25.8228 16.1704L26.093 16.2953L26.3631 16.4068L26.6332 16.5041L26.9034 16.5867L27.1735 16.6542L27.4437 16.7059L27.7138 16.7417L27.9839 16.7614L28.2541 16.7647L28.5242 16.7517L28.7943 16.7225L29.0645 16.6772L29.3346 16.6161L29.6047 16.5397L29.8749 16.4483L30.145 16.3425L30.4152 16.223L30.6853 16.0905L30.9554 15.9459L31.2256 15.79L31.4957 15.6238L31.7658 15.4483L32.036 15.2646L32.3061 15.0738L32.5762 14.8771L32.8464 14.6758L33.1165 14.471L33.3867 14.264L33.9269 13.8486L34.1971 13.6428L34.4672 13.4399L34.7373 13.2412L35.0075 13.0478L35.2776 12.8611L35.5477 12.6821L35.8179 12.512L36.088 12.3518L36.3582 12.2024L36.6283 12.0649L36.8984 11.94L37.1686 11.8285L37.4387 11.7312L37.7088 11.6485L37.979 11.5811L38.2491 11.5294L38.5192 11.4936L38.7894 11.4739L39.0595 11.4706L39.3297 11.4836L39.5998 11.5128L39.8699 11.5581L40.1401 11.6192L40.4102 11.6956L40.6803 11.787L40.9505 11.8928L41.2206 12.0123L41.4907 12.1448L41.7609 12.2894L42.031 12.4453L42.3012 12.6115L42.5713 12.787L42.8414 12.9707L43.1116 13.1615L43.3817 13.3582L43.6518 13.5595L43.922 13.7643L44.1921 13.9713L44.7324 14.3866L45.0025 14.5925L45.2727 14.7954L45.5428 14.9941L45.8129 15.1875L46.0831 15.3742L46.3532 15.5532L46.6233 15.7233L46.8935 15.8835L47.1636 16.0329L47.4338 16.1704L47.7039 16.2953L47.974 16.4068L48.2442 16.5041L48.5143 16.5867L48.7844 16.6542M-59 20.9412L-58.7299 20.977L-58.4597 20.9967L-58.1896 21L-57.9195 20.987L-57.6493 20.9578L-57.3792 20.9125L-57.109 20.8514L-56.8389 20.775L-56.5688 20.6836L-56.2986 20.5778L-56.0285 20.4583L-55.7584 20.3258L-55.4882 20.1812L-55.2181 20.0253L-54.948 19.8591L-54.6778 19.6836L-54.4077 19.4999L-54.1375 19.3091L-53.8674 19.1124L-53.5973 18.9111L-53.3271 18.7063L-53.057 18.4993L-52.5167 18.0839L-52.2466 17.8781L-51.9765 17.6752L-51.7063 17.4765L-51.4362 17.2831L-51.166 17.0964L-50.8959 16.9174L-50.6258 16.7473L-50.3556 16.587L-50.0855 16.4377L-49.8154 16.3002L-49.5452 16.1753L-49.2751 16.0638L-49.005 15.9665L-48.7348 15.8838L-48.4647 15.8164L-48.1945 15.7647L-47.9244 15.7289L-47.6543 15.7092L-47.3841 15.7059L-47.114 15.7189L-46.8439 15.7481L-46.5737 15.7934L-46.3036 15.8544L-46.0335 15.9309L-45.7633 16.0223L-45.4932 16.1281L-45.223 16.2476L-44.9529 16.38L-44.6828 16.5247L-44.4126 16.6806L-44.1425 16.8468L-43.8724 17.0223L-43.6022 17.206L-43.3321 17.3968L-43.062 17.5934L-42.7918 17.7948L-42.5217 17.9996L-42.2515 18.2066L-41.7113 18.6219L-41.4411 18.8278L-41.171 19.0307L-40.9009 19.2294L-40.6307 19.4227L-40.3606 19.6095L-40.0905 19.7885L-39.8203 19.9586L-39.5502 20.1188L-39.28 20.2682L-39.0099 20.4057L-38.7398 20.5306L-38.4696 20.6421L-38.1995 20.7394L-37.9294 20.822L-37.6592 20.8895L-37.3891 20.9412L-37.119 20.977L-36.8488 20.9967L-36.5787 21L-36.3085 20.987L-36.0384 20.9578L-35.7683 20.9125L-35.4981 20.8514L-35.228 20.775L-34.9579 20.6836L-34.6877 20.5778L-34.4176 20.4583L-34.1475 20.3258L-33.8773 20.1812L-33.6072 20.0253L-33.337 19.8591L-33.0669 19.6836L-32.7968 19.4999L-32.5266 19.3091L-32.2565 19.1124L-31.9864 18.9111L-31.7162 18.7063L-31.4461 18.4993L-30.9058 18.0839L-30.6357 17.8781L-30.3655 17.6752L-30.0954 17.4765L-29.8253 17.2831L-29.5551 17.0964L-29.285 16.9174L-29.0149 16.7473L-28.7447 16.587L-28.4746 16.4377L-28.2044 16.3002L-27.9343 16.1753L-27.6642 16.0638L-27.394 15.9665L-27.1239 15.8838L-26.8538 15.8164L-26.5836 15.7647L-26.3135 15.7289L-26.0434 15.7092L-25.7732 15.7059L-25.5031 15.7189L-25.2329 15.7481L-24.9628 15.7934L-24.6927 15.8544L-24.4225 15.9309L-24.1524 16.0223L-23.8823 16.1281L-23.6121 16.2476L-23.342 16.38L-23.0719 16.5247L-22.8017 16.6806L-22.5316 16.8468L-22.2614 17.0223L-21.9913 17.206L-21.7212 17.3968L-21.451 17.5934L-21.1809 17.7948L-20.9108 17.9996L-20.6406 18.2066L-20.1004 18.6219L-19.8302 18.8278L-19.5601 19.0307L-19.2899 19.2294L-19.0198 19.4227L-18.7497 19.6095L-18.4795 19.7885L-18.2094 19.9586L-17.9393 20.1188L-17.6691 20.2682L-17.399 20.4057L-17.1289 20.5306L-16.8587 20.6421L-16.5886 20.7394L-16.3184 20.822L-16.0483 20.8895L-15.7782 20.9412L-15.508 20.977L-15.2379 20.9967L-14.9678 21L-14.6976 20.987L-14.4275 20.9578L-14.1574 20.9125L-13.8872 20.8514L-13.6171 20.775L-13.3469 20.6836L-13.0768 20.5778L-12.8067 20.4583L-12.5365 20.3258L-12.2664 20.1812L-11.9963 20.0253L-11.7261 19.8591L-11.456 19.6836L-11.1859 19.4999L-10.9157 19.3091L-10.6456 19.1124L-10.3754 18.9111L-10.1053 18.7063L-9.83517 18.4993L-9.2949 18.0839L-9.02477 17.8781L-8.75463 17.6752L-8.48449 17.4765L-8.21436 17.2831L-7.94422 17.0964L-7.67408 16.9174L-7.40395 16.7473L-7.13381 16.587L-6.86367 16.4377L-6.59353 16.3002L-6.3234 16.1753L-6.05326 16.0638L-5.78312 15.9665L-5.51299 15.8838L-5.24285 15.8164L-4.97272 15.7647L-4.70258 15.7289L-4.43244 15.7092L-4.16231 15.7059L-3.89217 15.7189L-3.62203 15.7481L-3.3519 15.7934L-3.08176 15.8544L-2.81162 15.9309L-2.54149 16.0223L-2.27135 16.1281L-2.00122 16.2476L-1.73108 16.38L-1.46094 16.5247L-1.19081 16.6806L-0.92067 16.8468L-0.650533 17.0223L-0.380397 17.206L-0.110261 17.3968L0.159876 17.5934L0.430012 17.7948L0.700148 17.9996L0.970285 18.2066L1.51056 18.6219L1.78069 18.8278L2.05083 19.0307L2.32097 19.2294L2.5911 19.4227L2.86124 19.6095L3.13138 19.7885L3.40151 19.9586L3.67165 20.1188L3.94179 20.2682L4.21192 20.4057L4.48206 20.5306L4.75219 20.6421L5.02233 20.7394L5.29247 20.822L5.5626 20.8895L5.83274 20.9412L6.10288 20.977L6.37301 20.9967L6.64315 21L6.91329 20.987L7.18342 20.9578L7.45356 20.9125L7.72369 20.8514L7.99383 20.775L8.26397 20.6836L8.5341 20.5778L8.80424 20.4583L9.07438 20.3258L9.34451 20.1812L9.61465 20.0253L9.88479 19.8591L10.1549 19.6836L10.4251 19.4999L10.6952 19.3091L10.9653 19.1124L11.2355 18.9111L11.5056 18.7063L11.7757 18.4993L12.316 18.0839L12.5861 17.8781L12.8563 17.6752L13.1264 17.4765L13.3966 17.2831L13.6667 17.0964L13.9368 16.9174L14.207 16.7473L14.4771 16.587L14.7472 16.4377L15.0174 16.3002L15.2875 16.1753L15.5576 16.0638L15.8278 15.9665L16.0979 15.8838L16.3681 15.8164L16.6382 15.7647L16.9083 15.7289L17.1785 15.7092L17.4486 15.7059L17.7187 15.7189L17.9889 15.7481L18.259 15.7934L18.5291 15.8544L18.7993 15.9309L19.0694 16.0223L19.3396 16.1281L19.6097 16.2476L19.8798 16.38L20.15 16.5247L20.4201 16.6806L20.6902 16.8468L20.9604 17.0223L21.2305 17.206L21.5006 17.3968L21.7708 17.5934L22.0409 17.7948L22.3111 17.9996L22.5812 18.2066L23.1215 18.6219L23.3916 18.8278L23.6617 19.0307L23.9319 19.2294L24.202 19.4227L24.4722 19.6095L24.7423 19.7885L25.0124 19.9586L25.2826 20.1188L25.5527 20.2682L25.8228 20.4057L26.093 20.5306L26.3631 20.6421L26.6332 20.7394L26.9034 20.822L27.1735 20.8895L27.4437 20.9412L27.7138 20.977L27.9839 20.9967L28.2541 21L28.5242 20.987L28.7943 20.9578L29.0645 20.9125L29.3346 20.8514L29.6047 20.775L29.8749 20.6836L30.145 20.5778L30.4152 20.4583L30.6853 20.3258L30.9554 20.1812L31.2256 20.0253L31.4957 19.8591L31.7658 19.6836L32.036 19.4999L32.3061 19.3091L32.5762 19.1124L32.8464 18.9111L33.1165 18.7063L33.3867 18.4993L33.9269 18.0839L34.1971 17.8781L34.4672 17.6752L34.7373 17.4765L35.0075 17.2831L35.2776 17.0964L35.5477 16.9174L35.8179 16.7473L36.088 16.587L36.3582 16.4377L36.6283 16.3002L36.8984 16.1753L37.1686 16.0638L37.4387 15.9665L37.7088 15.8838L37.979 15.8164L38.2491 15.7647L38.5192 15.7289L38.7894 15.7092L39.0595 15.7059L39.3297 15.7189L39.5998 15.7481L39.8699 15.7934L40.1401 15.8544L40.4102 15.9309L40.6803 16.0223L40.9505 16.1281L41.2206 16.2476L41.4907 16.38L41.7609 16.5247L42.031 16.6806L42.3012 16.8468L42.5713 17.0223L42.8414 17.206L43.1116 17.3968L43.3817 17.5934L43.6518 17.7948L43.922 17.9996L44.1921 18.2066L44.7324 18.6219L45.0025 18.8278L45.2727 19.0307L45.5428 19.2294L45.8129 19.4227L46.0831 19.6095L46.3532 19.7885L46.6233 19.9586L46.8935 20.1188L47.1636 20.2682L47.4338 20.4057L47.7039 20.5306L47.974 20.6421L48.2442 20.7394L48.5143 20.822L48.7844 20.8895" stroke="white" stroke-width="1.5" stroke-miterlimit="10" stroke-linecap="round" stroke-linejoin="round"/>
</g>
<defs>
<clipPath id="clip0_4_152">
<rect width="24" height="24" fill="white"/>
</clipPath>
</defs>
</svg>
